<?xml version="1.0" encoding="UTF-8"?>
<svg version="1.1" xmlns="http://www.w3.org/2000/svg" width="500" height="500">
<path d="M0 0 C165 0 330 0 500 0 C500 165 500 330 500 500 C335 500 170 500 0 500 C0 335 0 170 0 0 Z " fill="#ACA8A2" transform="translate(0,0)"/>
<path d="M0 0 C1.12019531 0.25523438 2.24039063 0.51046875 3.39453125 0.7734375 C22.81065042 5.70092758 40.07400588 15.33874731 55.06640625 28.44921875 C57.23552479 30.33528321 59.4231868 32.1114996 61.6875 33.875 C75.70792527 46.06517271 85.74688987 65.46586099 91 83 C91.25302037 83.82625507 91.50604074 84.65251015 91.7667284 85.50380325 C94.04617291 93.66010469 94.41104136 101.33966568 94.34057617 109.76464844 C94.33972779 111.20482363 94.34020915 112.64500012 94.34190369 114.08517456 C94.34275684 117.956358 94.32524274 121.82725686 94.30418181 125.69837475 C94.28530026 129.75823167 94.2836556 133.81809667 94.28010559 137.87799072 C94.27081858 145.54875184 94.24625061 153.21938315 94.21605712 160.89008737 C94.18240835 169.63020517 94.16600088 178.37032949 94.15097082 187.11049604 C94.11969767 205.07373734 94.06700298 223.0368582 94 241 C92.71955128 240.04785033 91.440227 239.09418839 90.16137695 238.13989258 C89.44883255 237.60898514 88.73628815 237.0780777 88.00215149 236.53108215 C85.60999104 234.70175296 83.39229603 232.73784447 81.1875 230.6875 C77.83650354 227.62126197 74.42825568 224.70375377 70.875 221.875 C66.04935628 217.97210685 61.51361145 213.82109319 57 209.5625 C56.31333252 208.91466553 55.62666504 208.26683105 54.91918945 207.59936523 C52.94509938 205.73399248 50.97244208 203.86711501 49 202 C43.16166456 196.47551627 37.44093179 191.29885976 30.58203125 187.05859375 C30.05996094 186.70925781 29.53789062 186.35992187 29 186 C29 185.67 29 185.34 29 185 C27.4221875 184.6596875 27.4221875 184.6596875 25.8125 184.3125 C21.8402094 183.20639469 19.70400363 181.11370115 17 178 C16.2575 178.7425 15.515 179.485 14.75 180.25 C12.5 182.5 10.25 184.75 8 187 C10.662342 189.69181275 13.33066667 192.37762147 16 195.0625 C16.74378906 195.81466797 17.48757813 196.56683594 18.25390625 197.34179688 C22.4730093 201.57924385 26.76824927 205.64909084 31.31616211 209.53271484 C33.65871491 211.5739998 35.80346772 213.80346772 38 216 C38.62519531 216.43699219 39.25039063 216.87398437 39.89453125 217.32421875 C41.91553795 218.77918413 43.49759731 220.00864968 45 222 C45.43732342 225.92265854 44.76078071 229.47843857 43 233 C42.34 233 41.68 233 41 233 C40.9175 233.763125 40.835 234.52625 40.75 235.3125 C39.82977836 238.60996088 38.69632294 239.03903786 36 241 C35.32558869 242.6635479 34.6599679 244.33066942 34 246 C30.75641201 250.57918304 27.54921138 253.17149734 22.671875 255.921875 C20.83507443 256.90541706 20.83507443 256.90541706 20 259 C17.8125 260 17.8125 260 15 261 C14.0925 261.33 13.185 261.66 12.25 262 C4.64318716 264.3405578 -2.16581738 265.26238815 -10.125 265.0625 C-11.83584495 265.02766379 -13.54679509 264.99762501 -15.2578125 264.97265625 C-16.0017627 264.95468994 -16.74571289 264.93672363 -17.51220703 264.91821289 C-20.15871637 264.95962886 -20.15871637 264.95962886 -23.38305664 265.48681641 C-40.2583967 267.8811441 -58.7283982 267.07394035 -75 262 C-76.51980469 261.53207031 -76.51980469 261.53207031 -78.0703125 261.0546875 C-80.77081302 260.13913319 -83.37616237 259.11561689 -86 258 C-87.56814453 257.33677734 -87.56814453 257.33677734 -89.16796875 256.66015625 C-100.61666939 251.60017953 -110.46295228 245.06864514 -120 237 C-121.21816406 235.98486328 -121.21816406 235.98486328 -122.4609375 234.94921875 C-136.69780111 222.66599415 -146.56357191 207.70454838 -155 191 C-155.40347656 190.20335937 -155.80695313 189.40671875 -156.22265625 188.5859375 C-164.04821664 171.2685377 -162.40912164 151.03967821 -162.30418181 132.50097799 C-162.28518964 128.56928191 -162.2836471 124.63757594 -162.28010559 120.70584106 C-162.27085034 113.29027201 -162.24632677 105.8748386 -162.21605712 98.45932877 C-162.1823077 90.00443609 -162.16597593 81.54953629 -162.15097082 73.09459281 C-162.11976986 55.72965061 -162.06713902 38.36483973 -162 21 C-154.7740451 24.50335193 -149.33926023 30.46431269 -143.875 36.25 C-142.02022825 38.22443723 -142.02022825 38.22443723 -139 39 C-137.6328125 40.42578125 -137.6328125 40.42578125 -136.125 42.3125 C-129.21420412 50.47046711 -120.88653718 57.46245241 -112.7734375 64.39453125 C-110.22213982 66.7041862 -107.92460401 69.24025179 -105.640625 71.8125 C-104.06615594 73.24363166 -104.06615594 73.24363166 -102.0390625 72.70703125 C-101.02972656 72.35705078 -101.02972656 72.35705078 -100 72 C-93.71015465 71.49275441 -90.92439508 72.06048393 -86 76 C-84.68 74.68 -83.36 73.36 -82 72 C-83.35651986 67.43716046 -84.95910779 66.30908126 -89 64 C-90.33333333 62.33333333 -91.66666667 60.66666667 -93 59 C-94.65848177 57.98648336 -96.32665961 56.98879205 -98 56 C-100.77913294 53.79014941 -103.5249849 51.54871282 -106 49 C-106 48.34 -106 47.68 -106 47 C-106.598125 46.71125 -107.19625 46.4225 -107.8125 46.125 C-110 45 -110 45 -113 43 C-112.15699474 34.50863788 -102.57481448 27.01098314 -96.3125 21.74609375 C-82.79148141 11.53681114 -68.33743238 4.39023513 -52 0 C-50.80632812 -0.32226562 -49.61265625 -0.64453125 -48.3828125 -0.9765625 C-32.32572622 -4.73609911 -15.93191899 -3.89409284 0 0 Z " fill="#EAD6B7" transform="translate(284,120)"/>
<path d="M0 0 C7.2259549 3.50335193 12.66073977 9.46431269 18.125 15.25 C19.97977175 17.22443723 19.97977175 17.22443723 23 18 C24.3671875 19.42578125 24.3671875 19.42578125 25.875 21.3125 C32.79177529 29.47752561 41.13005383 36.41792948 49.2109375 43.3984375 C52.26895375 46.13596296 55.13921636 49.05875682 58 52 C56.53289516 56.42590288 54.09949067 59.68577265 51.1875 63.25 C50.19159076 64.4925947 49.19684969 65.73612634 48.203125 66.98046875 C47.68041016 67.63321777 47.15769531 68.2859668 46.61914062 68.95849609 C43.84454287 72.45686559 41.14241244 76.01014978 38.4375 79.5625 C37.34646429 80.99357355 36.2553196 82.42456401 35.1640625 83.85546875 C34.63586914 84.54817871 34.10767578 85.24088867 33.56347656 85.95458984 C30.36729907 90.13597258 27.14564078 94.29778034 23.92578125 98.4609375 C20.41221937 103.09342274 19.06562509 105.85977014 19.1875 111.6640625 C20.83897398 118.44463356 25.82671661 123.52805824 30.19873047 128.80712891 C32.65918737 131.80249674 35.0264033 134.86610444 37.39624023 137.93334961 C39.1632145 140.21859138 40.94445525 142.49217633 42.7265625 144.765625 C44.77137574 147.38875731 46.77046052 150.03318432 48.7109375 152.734375 C49.11417236 153.2922168 49.51740723 153.85005859 49.93286133 154.42480469 C50.97673581 155.88040836 52.00659462 157.3460359 53.03515625 158.8125 C55.25630954 161.28535455 56.81556861 162.12603933 60 163 C63.92426136 162.86230662 66.19655328 162.62972851 69.3125 160.1875 C70.86114767 158.17999376 72.00353228 156.32509135 73 154 C73.55042969 154.89847656 74.10085937 155.79695312 74.66796875 156.72265625 C82.29207364 168.10705115 99.49105183 175.72670643 112.5078125 178.56640625 C131.46813981 180.92054085 146.48429816 177.88620081 163.15405273 168.91381836 C165.38783711 167.80800499 167.67769581 166.90257882 170 166 C170.47308594 166.47832275 170.94617188 166.95664551 171.43359375 167.44946289 C173.61964406 169.6565534 175.80979129 171.85953633 178 174.0625 C178.74378906 174.81466797 179.48757813 175.56683594 180.25390625 176.34179688 C184.4730093 180.57924385 188.76824927 184.64909084 193.31616211 188.53271484 C195.65871491 190.5739998 197.80346772 192.80346772 200 195 C200.62519531 195.43699219 201.25039063 195.87398437 201.89453125 196.32421875 C203.91553795 197.77918413 205.49759731 199.00864968 207 201 C207.43732342 204.92265854 206.76078071 208.47843857 205 212 C204.34 212 203.68 212 203 212 C202.9175 212.763125 202.835 213.52625 202.75 214.3125 C201.82977836 217.60996088 200.69632294 218.03903786 198 220 C197.32558869 221.6635479 196.6599679 223.33066942 196 225 C192.75641201 229.57918304 189.54921138 232.17149734 184.671875 234.921875 C182.83507443 235.90541706 182.83507443 235.90541706 182 238 C179.8125 239 179.8125 239 177 240 C176.0925 240.33 175.185 240.66 174.25 241 C166.64318716 243.3405578 159.83418262 244.26238815 151.875 244.0625 C150.16415505 244.02766379 148.45320491 243.99762501 146.7421875 243.97265625 C145.9982373 243.95468994 145.25428711 243.93672363 144.48779297 243.91821289 C141.84128363 243.95962886 141.84128363 243.95962886 138.61694336 244.48681641 C121.7416033 246.8811441 103.2716018 246.07394035 87 241 C85.48019531 240.53207031 85.48019531 240.53207031 83.9296875 240.0546875 C81.22918698 239.13913319 78.62383763 238.11561689 76 237 C74.95457031 236.55785156 73.90914063 236.11570312 72.83203125 235.66015625 C61.38333061 230.60017953 51.53704772 224.06864514 42 216 C40.78183594 214.98486328 40.78183594 214.98486328 39.5390625 213.94921875 C25.30219889 201.66599415 15.43642809 186.70454838 7 170 C6.59652344 169.20335937 6.19304687 168.40671875 5.77734375 167.5859375 C-2.04821664 150.2685377 -0.40912164 130.03967821 -0.30418181 111.50097799 C-0.28518964 107.56928191 -0.2836471 103.63757594 -0.28010559 99.70584106 C-0.27085034 92.29027201 -0.24632677 84.8748386 -0.21605712 77.45932877 C-0.1823077 69.00443609 -0.16597593 60.54953629 -0.15097082 52.09459281 C-0.11976986 34.72965061 -0.06713902 17.36483973 0 0 Z " fill="#ED7728" transform="translate(122,141)"/>
<path d="M0 0 C1.12019531 0.25523438 2.24039063 0.51046875 3.39453125 0.7734375 C22.81065042 5.70092758 40.07400588 15.33874731 55.06640625 28.44921875 C57.23552479 30.33528321 59.4231868 32.1114996 61.6875 33.875 C75.70792527 46.06517271 85.74688987 65.46586099 91 83 C91.25302037 83.82625507 91.50604074 84.65251015 91.7667284 85.50380325 C94.04617291 93.66010469 94.41104136 101.33966568 94.34057617 109.76464844 C94.33972779 111.20482363 94.34020915 112.64500012 94.34190369 114.08517456 C94.34275684 117.956358 94.32524274 121.82725686 94.30418181 125.69837475 C94.28530026 129.75823167 94.2836556 133.81809667 94.28010559 137.87799072 C94.27081858 145.54875184 94.24625061 153.21938315 94.21605712 160.89008737 C94.18240835 169.63020517 94.16600088 178.37032949 94.15097082 187.11049604 C94.11969767 205.07373734 94.06700298 223.0368582 94 241 C92.71955128 240.04785033 91.440227 239.09418839 90.16137695 238.13989258 C89.44883255 237.60898514 88.73628815 237.0780777 88.00215149 236.53108215 C85.60999104 234.70175296 83.39229603 232.73784447 81.1875 230.6875 C77.83650354 227.62126197 74.42825568 224.70375377 70.875 221.875 C66.04935628 217.97210685 61.51361145 213.82109319 57 209.5625 C56.31333252 208.91466553 55.62666504 208.26683105 54.91918945 207.59936523 C52.94509938 205.73399248 50.97244208 203.86711501 49 202 C42.68699605 196.02636454 36.45101246 190.52580016 29 186 C31 184 31 184 33.703125 182.8984375 C38.2352728 180.28869363 40.67479053 176.78610667 43.75 172.625 C44.66688599 171.41432861 44.66688599 171.41432861 45.60229492 170.17919922 C46.83560395 168.54998328 48.06443576 166.91736759 49.28857422 165.28125 C51.19904582 162.73468129 53.14055532 160.21412295 55.09301758 157.69970703 C56.29485216 156.14778851 57.48347709 154.58566919 58.671875 153.0234375 C60.28054987 150.93431946 61.90455012 148.88627723 63.578125 146.8515625 C69.41747748 139.85395154 69.41747748 139.85395154 71.28173828 131.21606445 C70.36668288 124.0185273 64.953425 118.01903048 60.5625 112.5625 C59.30781315 110.97848258 58.05392597 109.39383146 56.80078125 107.80859375 C56.16736816 107.01050293 55.53395508 106.21241211 54.88134766 105.39013672 C52.51154455 102.37944734 50.19351888 99.33164991 47.88037109 96.27734375 C43.48312374 90.47229244 39.04737083 84.70083336 34.4375 79.0625 C33.67308594 78.12535156 32.90867187 77.18820313 32.12109375 76.22265625 C30.08063524 74.08449623 28.78422873 72.9226489 26 72 C23.763344 71.9342191 23.763344 71.9342191 21.5 72.3125 C20.37078125 72.46138672 20.37078125 72.46138672 19.21875 72.61328125 C17.01942497 72.93847494 17.01942497 72.93847494 15.06005859 73.65527344 C13 74 13 74 9.8203125 71.90234375 C8.58263819 70.92146581 7.35120949 69.9326731 6.125 68.9375 C-10.45385572 56.13839567 -28.70119418 52.89749773 -49.24609375 55.39453125 C-58.45689673 57.56755174 -69.19882487 62.49351669 -76.29296875 68.8203125 C-77.18628906 69.53960937 -78.07960937 70.25890625 -79 71 C-82 70 -82 70 -83.4375 68.0625 C-84.82842536 65.90189473 -84.82842536 65.90189473 -86.9375 65.0625 C-89 64 -89 64 -90.9375 61.5625 C-93.15057731 58.8129191 -94.98276226 57.78291321 -98 56 C-100.77913294 53.79014941 -103.5249849 51.54871282 -106 49 C-106 48.34 -106 47.68 -106 47 C-106.8971875 46.566875 -106.8971875 46.566875 -107.8125 46.125 C-110 45 -110 45 -113 43 C-112.15699474 34.50863788 -102.57481448 27.01098314 -96.3125 21.74609375 C-82.79148141 11.53681114 -68.33743238 4.39023513 -52 0 C-50.80632812 -0.32226562 -49.61265625 -0.64453125 -48.3828125 -0.9765625 C-32.32572622 -4.73609911 -15.93191899 -3.89409284 0 0 Z " fill="#F08C19" transform="translate(284,120)"/>
<path d="M0 0 C3.82817799 1.59358691 7.24559862 3.73323271 10.75 5.9375 C12.87459354 7.2259309 14.9996128 8.51365999 17.125 9.80078125 C18.24003906 10.48479004 19.35507813 11.16879883 20.50390625 11.87353516 C25.91563588 15.18114801 31.40865311 18.35075675 36.8901062 21.54086304 C48.98614152 28.59167368 61.07523619 35.66259563 73 43 C74.1240625 43.68578125 75.248125 44.3715625 76.40625 45.078125 C77.3240625 45.67109375 78.241875 46.2640625 79.1875 46.875 C79.92355469 47.34679687 80.65960938 47.81859375 81.41796875 48.3046875 C83.74043741 50.79345638 83.98709474 52.63602945 84 56 C81.16890696 59.4157522 77.85423906 61.44962027 74.0390625 63.65234375 C73.46087265 63.98865311 72.8826828 64.32496246 72.28697205 64.67146301 C70.40287279 65.76581612 68.51396205 66.85156619 66.625 67.9375 C65.30811129 68.70080586 63.99162743 69.46481058 62.67553711 70.22949219 C60.02735187 71.76773731 57.3777285 73.30345666 54.72705078 74.83740234 C49.65365418 77.77691426 44.60665011 80.76065048 39.5625 83.75 C37.80991116 84.78648425 36.05730707 85.82294271 34.3046875 86.859375 C30.55883438 89.07633708 26.81442219 91.29572007 23.0703125 93.515625 C22.08603271 94.09860352 21.10175293 94.68158203 20.08764648 95.28222656 C18.2219488 96.38729003 16.35682935 97.49333063 14.49243164 98.60058594 C10.36696935 101.04339168 6.23020917 103.46582411 2.0625 105.8359375 C1.35609375 106.2386084 0.6496875 106.6412793 -0.078125 107.05615234 C-2.98323675 108.48287516 -4.84224575 108.70172317 -8 108 C-11.41443421 105.89202771 -13.7002584 103.89922479 -15 100 C-15.10704606 97.05958289 -15.15726965 94.14252218 -15.16113281 91.20166016 C-15.16609772 90.30217148 -15.17106262 89.4026828 -15.17617798 88.47593689 C-15.19079653 85.49697101 -15.19760082 82.51805837 -15.203125 79.5390625 C-15.20887634 77.47024534 -15.21463408 75.40142821 -15.22039795 73.33261108 C-15.23090681 68.99322257 -15.23675035 64.65385258 -15.24023438 60.31445312 C-15.24572133 54.75362939 -15.26975423 49.19305023 -15.29820633 43.63230324 C-15.31682722 39.35836063 -15.322038 35.08447703 -15.32357025 30.81049728 C-15.32659813 28.76037635 -15.3346312 26.71025649 -15.34775543 24.66017532 C-15.36480561 21.7923036 -15.36293823 18.92503072 -15.35644531 16.05712891 C-15.3656601 15.21019974 -15.37487488 14.36327057 -15.3843689 13.49067688 C-15.35137846 8.84018865 -15.04092099 5.75988374 -12 2 C-7.88179373 -0.74547085 -4.83720009 -0.81819155 0 0 Z " fill="#0A202D" transform="translate(226,191)"/>
<path d="M0 0 C1.12019531 0.25523438 2.24039063 0.51046875 3.39453125 0.7734375 C22.80636952 5.69984116 40.05128633 15.33679303 55.05078125 28.4296875 C57.31334665 30.40156569 59.60424868 32.30235655 61.9375 34.1875 C67.71999773 39.1808231 71.13840605 44.97608757 74 52 C75.24995629 54.07410329 76.60012035 56.0208598 78 58 C77.01 59.98 76.02 61.96 75 64 C74.34 64 73.68 64 73 64 C73 62.68 73 61.36 73 60 C72.34 60 71.68 60 71 60 C67.125 53.375 67.125 53.375 66 50 C65.34 50.99 64.68 51.98 64 53 C61.08807339 49.45504587 61.08807339 49.45504587 60.625 47.0625 C59.67194054 43.91740377 57.3145793 42.25523111 55 40 C55 39.34 55 38.68 55 38 C54.34 38 53.68 38 53 38 C52.566875 37.525625 52.13375 37.05125 51.6875 36.5625 C50.1109138 34.79966395 50.1109138 34.79966395 47.81640625 34.71875 C43.92805578 33.72643865 41.32695954 31.39107659 38.25 28.9375 C16.23165557 12.19560406 -11.71818553 5.79687199 -39 9 C-63.8760588 12.42674435 -86.70592364 24.63883205 -102.39453125 44.43359375 C-104.27554339 46.26883917 -105.38785869 46.79309772 -108 47 C-110.75 45.0625 -110.75 45.0625 -113 43 C-112.15699474 34.50863788 -102.57481448 27.01098314 -96.3125 21.74609375 C-82.79148141 11.53681114 -68.33743238 4.39023513 -52 0 C-50.80632812 -0.32226562 -49.61265625 -0.64453125 -48.3828125 -0.9765625 C-32.32572622 -4.73609911 -15.93191899 -3.89409284 0 0 Z " fill="#EDA848" transform="translate(284,120)"/>
<path d="M0 0 C3.99430198 1.68989699 7.0678065 3.79504431 10 7 C10.33572015 10.88092497 9.74300004 14.51399991 8 18 C7.34 18 6.68 18 6 18 C5.9175 18.763125 5.835 19.52625 5.75 20.3125 C4.82977836 23.60996088 3.69632294 24.03903786 1 26 C0.32558869 27.6635479 -0.3400321 29.33066942 -1 31 C-4.24358799 35.57918304 -7.45078862 38.17149734 -12.328125 40.921875 C-14.16492557 41.90541706 -14.16492557 41.90541706 -15 44 C-17.1875 45 -17.1875 45 -20 46 C-21.36125 46.495 -21.36125 46.495 -22.75 47 C-30.35681284 49.3405578 -37.16581738 50.26238815 -45.125 50.0625 C-46.83584495 50.02766379 -48.54679509 49.99762501 -50.2578125 49.97265625 C-51.0017627 49.95468994 -51.74571289 49.93672363 -52.51220703 49.91821289 C-55.15871637 49.95962886 -55.15871637 49.95962886 -58.38305664 50.48681641 C-75.25986878 52.88135297 -93.72668878 52.07242573 -110 47 C-111.69382813 46.47986328 -111.69382813 46.47986328 -113.421875 45.94921875 C-120.99790882 43.40751828 -120.99790882 43.40751828 -124 40 C-123.34 39.34 -122.68 38.68 -122 38 C-119.375 38.375 -119.375 38.375 -117 39 C-116.34 37.68 -115.68 36.36 -115 35 C-113.783125 35.268125 -112.56625 35.53625 -111.3125 35.8125 C-110.49136719 35.99296875 -109.67023438 36.1734375 -108.82421875 36.359375 C-106.84316005 36.80874378 -104.86685922 37.27936553 -102.89453125 37.765625 C-95.9154084 39.46662985 -89.17861367 40.66317355 -82 41 C-81.14148438 41.04125 -80.28296875 41.0825 -79.3984375 41.125 C-54.62069559 41.70972547 -31.46190913 33.35834039 -13 17 C-7.72751915 11.82802098 -3.30850897 6.61701793 0 0 Z " fill="#861329" transform="translate(319,335)"/>
<path d="M0 0 C10.1537376 9.077535 16.17016762 24.21656091 20 37 C20.25302037 37.82625507 20.50604074 38.65251015 20.7667284 39.50380325 C23.04617291 47.66010469 23.41104136 55.33966568 23.34057617 63.76464844 C23.33972779 65.20482363 23.34020915 66.64500012 23.34190369 68.08517456 C23.34275684 71.956358 23.32524274 75.82725686 23.30418181 79.69837475 C23.28530026 83.75823167 23.2836556 87.81809667 23.28010559 91.87799072 C23.27081858 99.54875184 23.24625061 107.21938315 23.21605712 114.89008737 C23.18240835 123.63020517 23.16600088 132.37032949 23.15097082 141.11049604 C23.11969767 159.07373734 23.06700298 177.0368582 23 195 C21.70684939 194.04367001 20.41553147 193.08486149 19.125 192.125 C18.40570313 191.59132813 17.68640625 191.05765625 16.9453125 190.5078125 C15 189 15 189 13 187 C12.74946022 184.65901756 12.74946022 184.65901756 12.7484436 181.66610718 C12.74306076 180.5337413 12.73767792 179.40137543 12.73213196 178.23469543 C12.73625595 176.98597153 12.74037994 175.73724762 12.74462891 174.45068359 C12.73907063 172.43824125 12.73350805 170.42579891 12.72778487 168.41335702 C12.72343734 166.24413808 12.72391696 164.07496484 12.72560501 161.90574265 C12.72843926 157.37285745 12.7140768 152.84012806 12.69662476 148.30728149 C12.64962479 135.41483967 12.62569864 122.52240645 12.61914062 109.62988281 C12.61536802 102.51370209 12.59715384 95.39769602 12.56404626 88.2815901 C12.54726465 84.52176276 12.53792821 80.7622528 12.54698563 77.00239182 C12.80748174 55.16245241 12.80748174 55.16245241 8 34 C7.70813812 33.18664185 7.41627625 32.37328369 7.11557007 31.53527832 C6.39766023 29.70259715 5.58120652 27.90915541 4.75 26.125 C2 20.14851485 2 20.14851485 2 18 C3 17 4 16 5 15 C5.33 14.01 5.66 13.02 6 12 C4.58511552 9.23760649 3.19636905 7.19636905 1 5 C0.375 2.375 0.375 2.375 0 0 Z " fill="#BB3132" transform="translate(355,166)"/>
<path d="M0 0 C3.83271216 3.44632492 6.989781 7.36544429 10.125 11.4375 C11.09750231 12.68892172 12.07016295 13.94022043 13.04296875 15.19140625 C13.53458496 15.82578613 14.02620117 16.46016602 14.53271484 17.11376953 C15.92579206 18.9046039 17.32920089 20.68658535 18.73828125 22.46484375 C23.78220003 28.83260898 28.74315594 35.25693568 33.625 41.75 C34.14634521 42.44206543 34.66769043 43.13413086 35.20483398 43.84716797 C38.84825395 48.71522082 40.52690763 51.43260239 40.44238281 57.48095703 C39.59007368 62.33422723 36.42559005 65.70668567 33.375 69.4375 C32.70291504 70.29424316 32.03083008 71.15098633 31.33837891 72.03369141 C29.93885088 73.81476016 28.53035909 75.58881951 27.11328125 77.35595703 C25.0688801 79.9138203 23.05968866 82.49501152 21.0625 85.08984375 C15.30847507 92.56141 15.30847507 92.56141 12.46533203 96.1418457 C11.51046033 97.35269683 10.57284777 98.57742355 9.65576172 99.81713867 C6.59233452 103.82584184 6.59233452 103.82584184 3.6484375 104.69140625 C2.89820313 104.64886719 2.14796875 104.60632813 1.375 104.5625 C0.61960937 104.54316406 -0.13578125 104.52382813 -0.9140625 104.50390625 C-3.56050242 103.86459773 -4.53671001 103.31278384 -6 101 C-6.06558316 95.24507742 -3.04462284 92.02002201 0.5 87.875 C1.60173103 86.54418484 2.70197719 85.21213911 3.80078125 83.87890625 C4.61796631 82.89494873 4.61796631 82.89494873 5.45166016 81.89111328 C8.36730413 78.33000035 11.08666691 74.62980972 13.8125 70.921875 C15.38153004 68.82609916 16.97018592 66.79059486 18.625 64.765625 C19.26755737 63.96161255 19.26755737 63.96161255 19.9230957 63.14135742 C21.11834227 61.64885702 22.33017689 60.16968488 23.54296875 58.69140625 C25.29339376 56.13414782 25.29339376 56.13414782 24.53515625 53.5390625 C22.65868522 50.43548446 20.53753537 47.61686396 18.25 44.8125 C17.25720927 43.57209716 16.26505346 42.33118594 15.2734375 41.08984375 C14.74459961 40.43097168 14.21576172 39.77209961 13.67089844 39.09326172 C8.92182723 33.14373856 4.27892115 27.10990639 -0.37695312 21.08740234 C-1.86874496 19.16880725 -3.37658303 17.26432764 -4.890625 15.36328125 C-5.7191215 14.30497822 -6.54727506 13.24640659 -7.375 12.1875 C-8.08398438 11.29417969 -8.79296875 10.40085938 -9.5234375 9.48046875 C-11.19075637 6.67954948 -11.45285886 5.20274882 -11 2 C-7.75517501 -1.89378999 -4.60081556 -1.291457 0 0 Z " fill="#0E212D" transform="translate(311,196)"/>
<path d="M0 0 C1.9375 1.125 1.9375 1.125 3 3 C2.91432494 9.77689726 -0.09208703 13.35645816 -4.3125 18.4375 C-5.59248188 20.02757126 -6.87110194 21.61873961 -8.1484375 23.2109375 C-8.79393555 24.00854492 -9.43943359 24.80615234 -10.10449219 25.62792969 C-13.48583632 29.85940052 -16.69922336 34.21468294 -19.921875 38.56738281 C-23.12619953 42.8814017 -26.45066741 47.05659137 -29.98828125 51.10546875 C-31.19476252 52.99027457 -31.19476252 52.99027457 -30.94140625 55.3671875 C-29.71725403 58.79075015 -27.89593484 61.09704049 -25.625 63.9375 C-25.18236816 64.49743652 -24.73973633 65.05737305 -24.28369141 65.63427734 C-23.34331834 66.82251601 -22.39904269 68.00767513 -21.45117188 69.18994141 C-17.69403654 73.87624715 -13.99315764 78.60706077 -10.30175781 83.34521484 C-9.04897924 84.93773794 -7.771034 86.51036475 -6.4921875 88.08203125 C-0.4050103 95.83416807 -0.4050103 95.83416807 -0.875 100.125 C-2 103 -2 103 -4 104 C-7.0625 104.6875 -7.0625 104.6875 -11 104 C-18.06264928 98.22269877 -23.32524102 89.70229036 -28.71875 82.3984375 C-32.88818245 76.77175255 -37.21603555 71.26902264 -41.54370117 65.76367188 C-42.11064697 65.03986328 -42.67759277 64.31605469 -43.26171875 63.5703125 C-43.76662842 62.92852051 -44.27153809 62.28672852 -44.79174805 61.62548828 C-47.03502321 58.6075602 -47.48484294 56.02506648 -47.42871094 52.25146484 C-46.58002948 47.7944373 -43.49241405 44.69107295 -40.625 41.3125 C-39.33169742 39.7229278 -38.03873054 38.13308241 -36.74609375 36.54296875 C-36.10655762 35.77001465 -35.46702148 34.99706055 -34.80810547 34.20068359 C-32.36507053 31.22721384 -30.01919494 28.18599783 -27.6875 25.125 C-26.90246094 24.1040625 -26.11742187 23.083125 -25.30859375 22.03125 C-22.93294883 18.91195989 -20.5900682 15.77104843 -18.25 12.625 C-7.43884923 -1.82175899 -7.43884923 -1.82175899 0 0 Z " fill="#0C212C" transform="translate(192,196)"/>
<path d="M0 0 C2.5986513 0.35938795 3.71676483 0.65651867 5.4140625 2.71484375 C8.50886326 8.39530062 10.10118528 13.61059968 11 20 C11.27972656 21.14339844 11.55945313 22.28679687 11.84765625 23.46484375 C12 27 12 27 9.98046875 29.87109375 C9.05878906 30.71800781 8.13710938 31.56492187 7.1875 32.4375 C6.27355469 33.30246094 5.35960937 34.16742188 4.41796875 35.05859375 C2 37 2 37 0 37 C-0.13728516 37.8971875 -0.13728516 37.8971875 -0.27734375 38.8125 C-1.37716516 42.14168912 -3.76236685 43.40754728 -6.50390625 45.4375 C-8.46106103 47.1209822 -8.46106103 47.1209822 -8 51 C-8.66 51 -9.32 51 -10 51 C-10 51.99 -10 52.98 -10 54 C-11.14515145 55.17883237 -12.29871288 56.3508198 -13.49609375 57.4765625 C-17.39175265 61.42281437 -20.6439045 65.9863181 -23 71 C-22.21625 71.350625 -21.4325 71.70125 -20.625 72.0625 C-17.15628048 74.62274536 -17.04014237 76.91372642 -16 81 C-14.515 81.99 -14.515 81.99 -13 83 C-13.33 83.99 -13.66 84.98 -14 86 C-14.4125 85.57589844 -14.825 85.15179688 -15.25 84.71484375 C-21.53057758 78.33613215 -28.09286912 72.52809317 -35.3359375 67.26171875 C-37 66 -37 66 -39 64 C-37.23269531 63.27103516 -37.23269531 63.27103516 -35.4296875 62.52734375 C-30.26419309 59.93550637 -27.46537925 56.16744113 -24.125 51.5625 C-23.52276611 50.75989746 -22.92053223 49.95729492 -22.30004883 49.13037109 C-21.08704942 47.51314613 -19.87997701 45.89145676 -18.67919922 44.26513672 C-16.7902084 41.71700401 -14.85867272 39.20557029 -12.91137695 36.7019043 C-11.70698518 35.15010569 -10.51741414 33.58684077 -9.328125 32.0234375 C-7.71945013 29.93431946 -6.09544988 27.88627723 -4.421875 25.8515625 C1.36898112 18.78679961 1.36898112 18.78679961 3.29296875 10.11328125 C2.78264081 6.43211573 1.53583221 3.37883086 0 0 Z " fill="#B72C1D" transform="translate(352,241)"/>
<path d="M0 0 C2.0625 0.9375 2.0625 0.9375 4 3 C4.13948306 6.80788754 3.71178431 10.57643139 2 14 C1.34 14 0.68 14 0 14 C-0.0825 14.763125 -0.165 15.52625 -0.25 16.3125 C-1.17022164 19.60996088 -2.30367706 20.03903786 -5 22 C-5.67441131 23.6635479 -6.3400321 25.33066942 -7 27 C-10.24358799 31.57918304 -13.45078862 34.17149734 -18.328125 36.921875 C-20.16492557 37.90541706 -20.16492557 37.90541706 -21 40 C-32.25083346 45.14323815 -43.69504131 47.03428577 -56 46 C-56.66 45.34 -57.32 44.68 -58 44 C-57.38253906 43.82984375 -56.76507813 43.6596875 -56.12890625 43.484375 C-50.8699696 41.97953468 -45.92891675 40.21167962 -40.96875 37.90625 C-39.40308935 37.18554906 -37.79985424 36.5466116 -36.1875 35.9375 C-33.95285419 35.08622291 -33.95285419 35.08622291 -32.125 33.5625 C-30 32 -30 32 -26.73046875 30.73828125 C-22.84234743 29.09993168 -20.07871443 26.65131791 -17.1875 23.625 C-16.42699341 22.84576172 -16.42699341 22.84576172 -15.65112305 22.05078125 C-11.97976786 18.21163523 -8.57675872 14.18912204 -5.3125 10 C-4.89057373 9.46068848 -4.46864746 8.92137695 -4.03393555 8.36572266 C-1.99330237 5.65821312 -0.48136694 3.39404489 0 0 Z " fill="#443F44" transform="translate(325,339)"/>
<path d="M0 0 C2.93230193 1.32120828 4.98664899 2.74638197 7.234375 5.0390625 C7.80800781 5.61914062 8.38164062 6.19921875 8.97265625 6.796875 C9.55917969 7.40015625 10.14570313 8.0034375 10.75 8.625 C11.35199219 9.23601562 11.95398438 9.84703125 12.57421875 10.4765625 C14.05405305 11.97988624 15.52764676 13.48934856 17 15 C13.25 16.125 13.25 16.125 11 15 C8.71535805 15.286079 8.71535805 15.286079 6.1875 15.875 C5.33542969 16.05804688 4.48335938 16.24109375 3.60546875 16.4296875 C1.83426636 16.81738697 0.06605521 17.21895667 -1.69921875 17.6328125 C-4 18 -4 18 -6 17 C-6.969375 17.33 -7.93875 17.66 -8.9375 18 C-12 19 -12 19 -15 18 C-15.99 18 -16.98 18 -18 18 C-18.66 18.66 -19.32 19.32 -20 20 C-20 19.01 -20 18.02 -20 17 C-20.61488281 17.15597656 -21.22976563 17.31195313 -21.86328125 17.47265625 C-22.67152344 17.66730469 -23.47976563 17.86195313 -24.3125 18.0625 C-25.51326172 18.35833984 -25.51326172 18.35833984 -26.73828125 18.66015625 C-29 19 -29 19 -32 18 C-32.99 18.33 -33.98 18.66 -35 19 C-35 18.01 -35 17.02 -35 16 C-35.99 16.495 -35.99 16.495 -37 17 C-44.30434783 17.23188406 -44.30434783 17.23188406 -48 16 C-49.91765782 16.05607187 -51.83450637 16.1430435 -53.75 16.25 C-59.94836602 16.33994001 -62.36268551 14.94665063 -67 11 C-67.99 11 -68.98 11 -70 11 C-70.33 10.01 -70.66 9.02 -71 8 C-70.29875 8.19335938 -69.5975 8.38671875 -68.875 8.5859375 C-67.92625 8.84632813 -66.9775 9.10671875 -66 9.375 C-65.071875 9.63023437 -64.14375 9.88546875 -63.1875 10.1484375 C-61.6096875 10.56996094 -61.6096875 10.56996094 -60 11 C-58.76765625 11.35707031 -57.5353125 11.71414063 -56.265625 12.08203125 C-37.17534371 16.79568095 -19.5965233 11.05789394 -3 2 C-2.01 1.34 -1.02 0.68 0 0 Z " fill="#B63C2F" transform="translate(290,307)"/>
<path d="M0 0 C3.2428928 1.49671975 4.72336171 2.33914185 6.125 5.6875 C5.94593962 10.43260013 3.72067706 13.23599545 1 17 C-0.94540292 19.7569527 -0.94540292 19.7569527 -1.921875 21.96484375 C-4.97139311 27.72136163 -10.17006806 31.40891914 -16 34 C-17.34400833 34.98560611 -18.67607028 35.98758315 -20 37 C-25.09448896 40.62772401 -28.72236694 42.20102852 -35 43 C-36.010625 43.7425 -37.02125 44.485 -38.0625 45.25 C-40.89480386 47.07729281 -42.10358178 46.98816208 -45.5546875 46.59375 C-49.07247861 45.82932054 -52.53648636 44.9799678 -56 44 C-56 44.66 -56 45.32 -56 46 C-62.51292247 46.12524851 -62.51292247 46.12524851 -65.1875 45.4375 C-67.42287425 44.8979269 -68.80086835 45.43248215 -71 46 C-72.485 45.505 -72.485 45.505 -74 45 C-74.99 45.495 -74.99 45.495 -76 46 C-76.66 45.67 -77.32 45.34 -78 45 C-80.54615009 44.76827173 -83.07396225 44.58105471 -85.625 44.4375 C-86.68460938 44.37272461 -86.68460938 44.37272461 -87.765625 44.30664062 C-89.51018537 44.20055249 -91.25506697 44.09977111 -93 44 C-93 43.67 -93 43.34 -93 43 C-92.42668945 42.97494385 -91.85337891 42.9498877 -91.26269531 42.92407227 C-78.42943377 42.40261447 -78.42943377 42.40261447 -65.625 41.4375 C-61.22062149 41.01713909 -56.92298616 41.03117908 -52.5 41.125 C-44.66796956 41.18932879 -37.59127967 39.9096473 -30.3515625 36.8984375 C-28 36 -28 36 -25 36 C-24.67 35.01 -24.34 34.02 -24 33 C-22.328125 31.82421875 -22.328125 31.82421875 -20.25 30.6875 C-15.40068015 27.79355106 -12.06511487 24.69411408 -9.9375 19.3125 C-8.80277766 16.51351823 -7.38117281 15.7666766 -5 14 C-4.20376178 11.90584196 -4.20376178 11.90584196 -4 10 C-3.34 10 -2.68 10 -2 10 C-1.34 6.7 -0.68 3.4 0 0 Z " fill="#7E726C" transform="translate(329,343)"/>
<path d="M0 0 C4.86771576 2.06540605 6.82722931 5.30037747 9 10 C10.42978842 14.79883011 10.64232177 17.69824862 8.38671875 22.26953125 C5.82762882 26.46809954 2.80977189 30.28411071 -0.25 34.125 C-4.32812099 39.29342538 -8.37784561 44.47704466 -12.3359375 49.73828125 C-13.40859863 51.16213135 -13.40859863 51.16213135 -14.50292969 52.61474609 C-15.8957351 54.46744009 -17.2845463 56.32314495 -18.66894531 58.18212891 C-19.30670898 59.0282373 -19.94447266 59.8743457 -20.6015625 60.74609375 C-21.16182129 61.49560303 -21.72208008 62.2451123 -22.29931641 63.01733398 C-24.71007958 65.82781456 -26.73012817 67.7924248 -30.4375 68.3984375 C-31.283125 68.39070313 -32.12875 68.38296875 -33 68.375 C-34.2684375 68.38660156 -34.2684375 68.38660156 -35.5625 68.3984375 C-38.49180584 67.91960866 -39.89532233 67.07544604 -42 65 C-42 64.01 -42 63.02 -42 62 C-41.42636719 62.14953125 -40.85273438 62.2990625 -40.26171875 62.453125 C-34.65183415 63.80965581 -34.65183415 63.80965581 -29 63 C-25.39911277 59.77717494 -22.7689796 55.94047097 -20 52 C-18.58748125 50.12187322 -17.17077108 48.24689182 -15.75 46.375 C-15.02167969 45.39402344 -14.29335938 44.41304688 -13.54296875 43.40234375 C-9.864904 38.45877283 -6.09699517 33.58303612 -2.34082031 28.69873047 C-1.80682617 28.00279785 -1.27283203 27.30686523 -0.72265625 26.58984375 C-0.24578369 25.96972412 0.23108887 25.34960449 0.72241211 24.71069336 C3.77942145 20.61735026 4.47120512 18.34108145 4.40625 13.34765625 C3.82886485 10.01103628 2.24148253 8.06991985 -0.00390625 5.60546875 C-1 4 -1 4 -0.65234375 1.80078125 C-0.43707031 1.20652344 -0.22179687 0.61226562 0 0 Z " fill="#E0D1B9" transform="translate(346,236)"/>
<path d="M0 0 C0.33 0 0.66 0 1 0 C3.36567926 9.75842697 3.36567926 9.75842697 0.5078125 14.44921875 C-1.23999242 16.75907711 -2.94895258 18.95359296 -5 21 C-5.66 21 -6.32 21 -7 21 C-7.11859375 21.56847656 -7.2371875 22.13695312 -7.359375 22.72265625 C-9.23125706 29.37696871 -13.20578069 34.20578069 -18 39 C-19.36100091 41.26296601 -20.5922149 43.56052998 -21.7890625 45.9140625 C-22.99135843 47.98511419 -24.29770193 49.34002426 -26 51 C-26.68132451 52.66072849 -27.34742127 54.327767 -28 56 C-30.13613158 59.5602193 -32.06850367 60.72492011 -36 62 C-38.43929746 60.07423885 -40.80090595 58.19909405 -43 56 C-41.23269531 55.27103516 -41.23269531 55.27103516 -39.4296875 54.52734375 C-34.26419309 51.93550637 -31.46537925 48.16744113 -28.125 43.5625 C-27.52276611 42.75989746 -26.92053223 41.95729492 -26.30004883 41.13037109 C-25.08704942 39.51314613 -23.87997701 37.89145676 -22.67919922 36.26513672 C-20.79024028 33.71704701 -18.85865194 31.20570722 -16.91162109 28.7019043 C-15.70656338 27.14955732 -14.51526404 25.58656141 -13.32421875 24.0234375 C-11.72401509 21.94182804 -10.10930923 19.89027558 -8.45703125 17.8515625 C-3.7574794 11.91921883 -0.88403597 7.5774512 0 0 Z " fill="#452328" transform="translate(356,249)"/>
<path d="M0 0 C3.98972173 0.58019293 6.76872792 1.82210245 10.1875 3.9375 C11.04730469 4.46214844 11.90710938 4.98679687 12.79296875 5.52734375 C15 7 15 7 17 9 C17 9.99 17 10.98 17 12 C17.62648437 11.90460938 18.25296875 11.80921875 18.8984375 11.7109375 C20.12433594 11.54464844 20.12433594 11.54464844 21.375 11.375 C22.18710938 11.25898438 22.99921875 11.14296875 23.8359375 11.0234375 C24.55007812 11.01570313 25.26421875 11.00796875 26 11 C26.66 11.66 27.32 12.32 28 13 C35.23331409 14.89726271 42.60626434 15.9257942 50 17 C49.505 18.485 49.505 18.485 49 20 C57.91 20 66.82 20 76 20 C76.495 18.515 76.495 18.515 77 17 C81.62 17 86.24 17 91 17 C78.08481709 25.61012194 55.4724918 22.63586071 41 20 C37.32433499 19.17670853 33.67973263 18.24682173 30.05200195 17.23339844 C26.47364051 16.06341082 26.47364051 16.06341082 23 17 C22.67 17.99 22.34 18.98 22 20 C21.67 19.34 21.34 18.68 21 18 C19.8553125 18.4640625 19.8553125 18.4640625 18.6875 18.9375 C13.25069497 21.08693455 13.25069497 21.08693455 11.0625 20.328125 C10.0415625 19.79445313 10.0415625 19.79445313 9 19.25 C8.319375 18.90453125 7.63875 18.5590625 6.9375 18.203125 C4.98559909 16.9910575 3.5502837 15.68593353 2 14 C3.65 13.67 5.3 13.34 7 13 C7.33 13.66 7.66 14.32 8 15 C10.0162233 14.28436734 10.0162233 14.28436734 12 13 C12.80528889 10.94999129 12.80528889 10.94999129 13 9 C12.319375 9.28875 11.63875 9.5775 10.9375 9.875 C6.86759393 10.04818749 5.41841412 8.33613237 2.453125 5.73828125 C0.85026834 3.82088551 0.40417684 2.44101541 0 0 Z " fill="#D7402C" transform="translate(180,355)"/>
<path d="M0 0 C0.66 0 1.32 0 2 0 C1.85892253 1.45880109 1.71197585 2.91703551 1.5625 4.375 C1.48128906 5.18710937 1.40007812 5.99921875 1.31640625 6.8359375 C1 9 1 9 0 11 C-0.66 11 -1.32 11 -2 11 C-2.0825 11.763125 -2.165 12.52625 -2.25 13.3125 C-3.17022164 16.60996088 -4.30367706 17.03903786 -7 19 C-7.67441131 20.6635479 -8.3400321 22.33066942 -9 24 C-12.24358799 28.57918304 -15.45078862 31.17149734 -20.328125 33.921875 C-22.16492557 34.90541706 -22.16492557 34.90541706 -23 37 C-34.25083346 42.14323815 -45.69504131 44.03428577 -58 43 C-58.66 42.34 -59.32 41.68 -60 41 C-51.62041012 39.26149588 -43.29172861 37.66110878 -34.8046875 36.52734375 C-28.86642703 35.41081845 -26.69893014 33.6500836 -23 29 C-19.61856829 26.16073877 -16.12726944 23.61487424 -12.25 21.5 C-9.27497397 19.51664932 -7.889048 16.99642096 -6 14 C-5.34 13.67 -4.68 13.34 -4 13 C-1.44215104 8.70281375 -0.49562151 4.95621512 0 0 Z " fill="#6A605E" transform="translate(327,342)"/>
<path d="M0 0 C4.2742558 1.5830577 6.26531794 4.50568404 9 8 C7.69675781 8.41378906 7.69675781 8.41378906 6.3671875 8.8359375 C3.05330862 9.92011708 3.05330862 9.92011708 0.1953125 11.2890625 C-11.25971429 16.2733108 -22.72891587 15.49150879 -35 15 C-31.89288957 13.3774344 -29.19394722 12.55801747 -25.75 11.875 C-16.61563052 9.7012228 -7.79526823 5.19684549 0 0 Z " fill="#411D2A" transform="translate(290,307)"/>
<path d="M0 0 C5.69305433 1.23876645 11.35370013 2.56276003 17 4 C16.67 4.763125 16.34 5.52625 16 6.3125 C14.82563314 8.99069135 14.82563314 8.99069135 15 12 C16.32 11.67 17.64 11.34 19 11 C19 11.66 19 12.32 19 13 C19.99 13.33 20.98 13.66 22 14 C18.25338972 14.97251727 15.80242364 14.9625044 12.09375 13.890625 C11.18496094 13.63023437 10.27617187 13.36984375 9.33984375 13.1015625 C7.93412109 12.68003906 7.93412109 12.68003906 6.5 12.25 C5.56285156 11.98445313 4.62570313 11.71890625 3.66015625 11.4453125 C-0.94168399 10.10066131 -5.03289468 8.79042154 -9 6 C-8.34 5.01 -7.68 4.02 -7 3 C-5.35 3.33 -3.7 3.66 -2 4 C-1.34 2.68 -0.68 1.36 0 0 Z " fill="#BB232B" transform="translate(204,370)"/>
<path d="M0 0 C1.32 0.99 2.64 1.98 4 3 C2.66315258 12.57516962 -6.66661034 20.19580969 -13 27 C-13.65613281 27.71027344 -14.31226563 28.42054688 -14.98828125 29.15234375 C-15.59027344 29.78269531 -16.19226563 30.41304688 -16.8125 31.0625 C-17.59560547 31.88427734 -17.59560547 31.88427734 -18.39453125 32.72265625 C-20.23448204 34.1865587 -21.70405592 34.59659117 -24 35 C-22.74157232 31.22471696 -21.37506571 30.89332955 -18 29 C-15.85676551 27.15020365 -15.85676551 27.15020365 -15.1875 24.625 C-13.71899174 21.37882384 -11.82016028 20.11512021 -9 18 C-6.70986347 14.5647952 -6.82157027 13.014669 -7 9 C-6.34 9 -5.68 9 -5 9 C-4.34 7.02 -3.68 5.04 -3 3 C-2.01 3 -1.02 3 0 3 C0 2.01 0 1.02 0 0 Z " fill="#5C1629" transform="translate(321,336)"/>
<path d="M0 0 C4 1 4 1 5.4140625 2.71484375 C8.50886326 8.39530062 10.10118528 13.61059968 11 20 C11.27972656 21.14339844 11.55945313 22.28679687 11.84765625 23.46484375 C12 27 12 27 9.98046875 29.87109375 C9.05878906 30.71800781 8.13710938 31.56492187 7.1875 32.4375 C6.27355469 33.30246094 5.35960937 34.16742188 4.41796875 35.05859375 C2 37 2 37 0 37 C-0.33 38.32 -0.66 39.64 -1 41 C-1.66 40.34 -2.32 39.68 -3 39 C-2.60167969 38.41992188 -2.20335937 37.83984375 -1.79296875 37.2421875 C3.82248757 28.96246358 6.48060765 23.0654656 7 13 C6.34 13 5.68 13 5 13 C5 11.35 5 9.7 5 8 C4.34 8 3.68 8 3 8 C2.01 5.36 1.02 2.72 0 0 Z " fill="#D93A19" transform="translate(352,241)"/>
<path d="M0 0 C1.5390625 1.2265625 1.5390625 1.2265625 3 3 C2.90673801 7.98019 1.03466657 13.08022235 -2 17 C-2.66 17 -3.32 17 -4 17 C-4.37125 17.8353125 -4.37125 17.8353125 -4.75 18.6875 C-6.21606015 21.39971127 -8.02989471 23.63587365 -10 26 C-10.99 25.67 -11.98 25.34 -13 25 C-12.54625 24.608125 -12.0925 24.21625 -11.625 23.8125 C-9.86849476 22.07263481 -9.86849476 22.07263481 -9.125 19.6875 C-7.6713735 16.21494781 -5.43702083 13.85309755 -3 11 C-0.2174663 7.16202248 0.3301904 4.73272903 0 0 Z M-16 27 C-15.34 27.33 -14.68 27.66 -14 28 C-14.62648438 28.47050781 -15.25296875 28.94101562 -15.8984375 29.42578125 C-16.71570313 30.04839844 -17.53296875 30.67101562 -18.375 31.3125 C-19.18710937 31.92738281 -19.99921875 32.54226563 -20.8359375 33.17578125 C-23.19779389 34.99480683 -23.19779389 34.99480683 -25 38 C-33.26880076 41.626667 -42.10513127 42.13195885 -51 43 C-47.48028119 39.71079174 -44.52280915 39.54761538 -39.8125 39.1875 C-32.80504577 38.46867845 -28.40046937 36.44424944 -23 32 C-21.65174188 31.03337174 -20.29797466 30.07435707 -18.9375 29.125 C-17.968125 28.42375 -16.99875 27.7225 -16 27 Z " fill="#564A4C" transform="translate(325,339)"/>
<path d="M0 0 C-4.50539931 3.40652143 -7.33940004 4.20552983 -13 5 C-14.010625 5.7425 -15.02125 6.485 -16.0625 7.25 C-18.89480386 9.07729281 -20.10358178 8.98816208 -23.5546875 8.59375 C-27.07247861 7.82932054 -30.53648636 6.9799678 -34 6 C-34 6.66 -34 7.32 -34 8 C-40.51292247 8.12524851 -40.51292247 8.12524851 -43.1875 7.4375 C-45.42287425 6.8979269 -46.80086835 7.43248215 -49 8 C-49.99 7.67 -50.98 7.34 -52 7 C-52.99 7.495 -52.99 7.495 -54 8 C-54.66 7.67 -55.32 7.34 -56 7 C-58.54615009 6.76827173 -61.07396225 6.58105471 -63.625 6.4375 C-64.33140625 6.39431641 -65.0378125 6.35113281 -65.765625 6.30664062 C-67.51018537 6.20055249 -69.25506697 6.09977111 -71 6 C-71 5.67 -71 5.34 -71 5 C-70.08823502 4.99453156 -70.08823502 4.99453156 -69.15805054 4.98895264 C-62.76482482 4.94676395 -56.37229295 4.87717067 -49.97949219 4.79248047 C-47.6016335 4.7644564 -45.22368487 4.74315073 -42.84570312 4.72900391 C-24.06058044 4.6832339 -24.06058044 4.6832339 -6 0 C-3 -1 -3 -1 0 0 Z " fill="#928882" transform="translate(307,381)"/>
<path d="M0 0 C0.99 0.33 1.98 0.66 3 1 C3 1.66 3 2.32 3 3 C2.360625 3.61875 1.72125 4.2375 1.0625 4.875 C-1.03417231 7.03520783 -1.58396674 8.08776721 -2 11 C-2.99 11 -3.98 11 -5 11 C-5.2475 11.9075 -5.495 12.815 -5.75 13.75 C-7.07577985 17.19702761 -8.39793746 18.47678784 -11 21 C-11.6496875 22.546875 -11.6496875 22.546875 -12.3125 24.125 C-14 27 -14 27 -17.4375 28.5625 C-21 29 -21 29 -23.4375 27.625 C-23.953125 27.08875 -24.46875 26.5525 -25 26 C-23.83082031 25.525625 -22.66164063 25.05125 -21.45703125 24.5625 C-16.0956506 21.87885672 -13.15550843 17.76613234 -9.6875 13 C-9.08099609 12.19304687 -8.47449219 11.38609375 -7.84960938 10.5546875 C-6.21860539 8.38001552 -4.60792718 6.19174697 -3 4 C-2.00156799 2.66549211 -1.00203395 1.33180544 0 0 Z " fill="#3E1D23" transform="translate(338,279)"/>
<path d="M0 0 C0.66 0.33 1.32 0.66 2 1 C2 1.66 2 2.32 2 3 C1.34 3 0.68 3 0 3 C0 3.99 0 4.98 0 6 C-1.14515145 7.17883237 -2.29871288 8.3508198 -3.49609375 9.4765625 C-7.39175265 13.42281437 -10.6439045 17.9863181 -13 23 C-11.824375 23.5259375 -11.824375 23.5259375 -10.625 24.0625 C-7.15628048 26.62274536 -7.04014237 28.91372642 -6 33 C-5.01 33.66 -4.02 34.32 -3 35 C-3.33 35.99 -3.66 36.98 -4 38 C-4.65355469 37.32904297 -4.65355469 37.32904297 -5.3203125 36.64453125 C-6.21363281 35.73767578 -6.21363281 35.73767578 -7.125 34.8125 C-7.75664062 34.16925781 -8.38828125 33.52601563 -9.0390625 32.86328125 C-10.78422757 31.20502679 -12.53610917 29.87841164 -14.5 28.5 C-17 26 -17 26 -17.0625 22.3125 C-16 19 -16 19 -13 17 C-11.90714229 15.00543079 -11.04870338 12.96750926 -10.16015625 10.875 C-8.73990147 8.57963874 -7.41272311 8.10841933 -5 7 C-3.3553326 4.53673288 -3.3553326 4.53673288 -2 2 C-1.34 1.34 -0.68 0.68 0 0 Z " fill="#D3371C" transform="translate(342,289)"/>
<path d="M0 0 C3.76687864 1.88343932 4.79421646 2.69132469 7 6 C6.01 6 5.02 6 4 6 C3.34 5.34 2.68 4.68 2 4 C1.67 41.62 1.34 79.24 1 118 C0.67 118 0.34 118 0 118 C0 79.06 0 40.12 0 0 Z " fill="#EFA525" transform="translate(122,141)"/>
<path d="M0 0 C4.97225683 0.73663064 7.18929945 3.80534137 10.375 7.5 C6.625 8.625 6.625 8.625 4.375 7.5 C2.09035805 7.786079 2.09035805 7.786079 -0.4375 8.375 C-1.71560547 8.64957031 -1.71560547 8.64957031 -3.01953125 8.9296875 C-4.76440882 9.31162472 -6.505437 9.7115677 -8.2421875 10.12890625 C-11.45207969 10.62880749 -13.64719957 9.67726994 -16.625 8.5 C-15.635 8.17 -14.645 7.84 -13.625 7.5 C-13.625 6.84 -13.625 6.18 -13.625 5.5 C-12.55958984 5.08427734 -12.55958984 5.08427734 -11.47265625 4.66015625 C-10.09400391 4.11681641 -10.09400391 4.11681641 -8.6875 3.5625 C-7.77097656 3.20285156 -6.85445313 2.84320313 -5.91015625 2.47265625 C-0.1826324 0.03478712 -0.1826324 0.03478712 0 0 Z " fill="#C62C2A" transform="translate(296.625,314.5)"/>
<path d="M0 0 C2.12038635 2.61514317 4.13091744 5.19637616 6 8 C5.66906957 10.79155827 4.79958861 13.29028304 4 16 C-1.26087893 16.31565274 -4.49248551 15.7659748 -9 13 C-10.02005284 12.02046327 -11.0246803 11.02408568 -12 10 C-11.38511719 9.86464844 -10.77023438 9.72929687 -10.13671875 9.58984375 C-5.30217235 8.4338402 -5.30217235 8.4338402 -1.734375 5.2421875 C-0.81325491 3.11697937 -0.81325491 3.11697937 0 0 Z " fill="#46262D" transform="translate(194,295)"/>
<path d="M0 0 C0.66 0.33 1.32 0.66 2 1 C-6.39824956 10.19808285 -16.32601175 17.1638448 -27.6875 22.1875 C-28.37062256 22.49107422 -29.05374512 22.79464844 -29.75756836 23.10742188 C-34.60589529 25.13136824 -34.60589529 25.13136824 -38 24 C-37.34 24 -36.68 24 -36 24 C-36 23.34 -36 22.68 -36 22 C-34.41701974 21.5196682 -32.83360022 21.04078388 -31.25 20.5625 C-30.36828125 20.29566406 -29.4865625 20.02882813 -28.578125 19.75390625 C-26 19 -26 19 -23.734375 18.58984375 C-23.16203125 18.39519531 -22.5896875 18.20054687 -22 18 C-21.67 17.01 -21.34 16.02 -21 15 C-20.34 15 -19.68 15 -19 15 C-19 14.34 -19 13.68 -19 13 C-18.01 12.67 -17.02 12.34 -16 12 C-15.67 11.34 -15.34 10.68 -15 10 C-14.34 10 -13.68 10 -13 10 C-12.67 9.01 -12.34 8.02 -12 7 C-10.68 7 -9.36 7 -8 7 C-7.690625 6.1028125 -7.690625 6.1028125 -7.375 5.1875 C-5.46450791 2.14808077 -3.28595775 1.30069161 0 0 Z " fill="#D9624D" transform="translate(309,347)"/>
<path d="M0 0 C-10.2586205 6.83908033 -22.98821367 8.00964335 -35 7 C-35.66 6.34 -36.32 5.68 -37 5 C-24.88002154 2.38793568 -12.45158464 -0.24941541 0 0 Z " fill="#766B69" transform="translate(304,378)"/>
<path d="M0 0 C1.5625 1.1875 1.5625 1.1875 3 3 C2.68797088 8.77253876 -0.57908973 13.53794313 -4 18 C-4.29003906 18.62390625 -4.58007812 19.2478125 -4.87890625 19.890625 C-6.11663891 22.21945997 -7.50537785 23.77170642 -9.375 25.625 C-9.96023438 26.21539062 -10.54546875 26.80578125 -11.1484375 27.4140625 C-13.0104347 29.00893774 -14.76818495 30.00698978 -17 31 C-17 27.51645795 -16.54964842 27.11572947 -14.3125 24.625 C-13.76335937 24.00625 -13.21421875 23.3875 -12.6484375 22.75 C-11.30116446 21.31971962 -9.87861992 19.96067212 -8.4375 18.625 C-3.39220699 13.19160753 -0.47258835 7.40388414 0 0 Z M-21 31 C-20.34 31.33 -19.68 31.66 -19 32 C-20.32 32.99 -21.64 33.98 -23 35 C-22.34 33.68 -21.68 32.36 -21 31 Z " fill="#8F847D" transform="translate(332,345)"/>
<path d="M0 0 C0.66 0.33 1.32 0.66 2 1 C-4.85574597 7.56257262 -13.08684831 9.57878672 -22 12 C-22.88655273 12.27481201 -22.88655273 12.27481201 -23.79101562 12.55517578 C-26.86694935 13.174578 -29.81686875 13.11094547 -32.953125 13.09765625 C-33.61334656 13.0962413 -34.27356812 13.09482635 -34.95379639 13.09336853 C-37.05257794 13.08779245 -39.15125095 13.07524447 -41.25 13.0625 C-42.67708179 13.0574819 -44.10416525 13.05291954 -45.53125 13.04882812 C-49.02086832 13.03783088 -52.51042356 13.0205828 -56 13 C-56 12.67 -56 12.34 -56 12 C-49.46352393 11.31835631 -43.07386035 10.97574827 -36.5 11.125 C-24.63276772 11.19773074 -13.19117783 7.78119396 -3 1.6875 C-2.01 1.130625 -1.02 0.57375 0 0 Z " fill="#867875" transform="translate(313,373)"/>
<path d="M0 0 C0.66 0 1.32 0 2 0 C2 1.32 2 2.64 2 4 C1.01 4 0.02 4 -1 4 C-1.66 5.98 -2.32 7.96 -3 10 C-3.66 10 -4.32 10 -5 10 C-4.731875 10.886875 -4.46375 11.77375 -4.1875 12.6875 C-4 16 -4 16 -6.25 18.75 C-9 21 -9 21 -12 23 C-13.32 22.01 -14.64 21.02 -16 20 C-15.56429688 19.5875 -15.12859375 19.175 -14.6796875 18.75 C-9.43414274 13.66341114 -4.93847907 8.32310697 -1.25 2 C-0.8375 1.34 -0.425 0.68 0 0 Z " fill="#711125" transform="translate(319,335)"/>
<path d="M0 0 C4.62 0 9.24 0 14 0 C2.9012328 7.39917814 -15.77170613 5.62191864 -28.4375 4.125 C-29.12408691 4.04660889 -29.81067383 3.96821777 -30.51806641 3.88745117 C-34.09057519 3.42754909 -36.84551014 2.70113271 -40 1 C-38.9486084 1.09849243 -38.9486084 1.09849243 -37.87597656 1.19897461 C-29.83762064 1.91485371 -21.81456229 2.29543252 -13.75 2.5625 C-12.51636719 2.60568359 -11.28273437 2.64886719 -10.01171875 2.69335938 C-7.00789133 2.79814405 -4.00400025 2.9003154 -1 3 C-0.67 2.01 -0.34 1.02 0 0 Z " fill="#CD6F5C" transform="translate(257,372)"/>
<path d="M0 0 C2.475 2.475 2.475 2.475 5 5 C4.13890625 5.27585937 3.2778125 5.55171875 2.390625 5.8359375 C-0.96758682 6.94264441 -0.96758682 6.94264441 -4.015625 8.2890625 C-13.89057506 12.36784622 -22.45591205 12.53796367 -33 12 C-33 11.67 -33 11.34 -33 11 C-31.9378125 10.97421875 -30.875625 10.9484375 -29.78125 10.921875 C-21.87495679 10.63690461 -15.87933242 10.2651861 -9 6 C-8.34 6 -7.68 6 -7 6 C-7 5.34 -7 4.68 -7 4 C-6.21625 3.71125 -5.4325 3.4225 -4.625 3.125 C-1.90328368 2.15087746 -1.90328368 2.15087746 0 0 Z " fill="#851E2B" transform="translate(294,310)"/>
<path d="M0 0 C0.65234375 1.73828125 0.65234375 1.73828125 1 4 C-2.95657774 12.65811781 -10.77323191 21.26960835 -19 26 C-19.66 25.67 -20.32 25.34 -21 25 C-20.39414062 24.42894531 -19.78828125 23.85789062 -19.1640625 23.26953125 C-12.18274855 16.51376745 -4.39592579 8.79185157 0 0 Z " fill="#3E3338" transform="translate(325,341)"/>
<path d="M0 0 C1.875 0.3125 1.875 0.3125 4 1 C4.66 1.99 5.32 2.98 6 4 C5.34 4.66 4.68 5.32 4 6 C3.60235737 7.98821313 3.26224651 9.98944339 3 12 C2.01 12.33 1.02 12.66 0 13 C0 12.34 0 11.68 0 11 C-0.886875 11.268125 -1.77375 11.53625 -2.6875 11.8125 C-6 12 -6 12 -8.875 9.5625 C-9.57625 8.716875 -10.2775 7.87125 -11 7 C-7.7 7.33 -4.4 7.66 -1 8 C-0.67 5.36 -0.34 2.72 0 0 Z " fill="#D84B2D" transform="translate(199,303)"/>
<path d="M0 0 C4.83963469 2.05349105 6.88201397 5.29424909 9 10 C9.6410629 13.00556302 9.92184621 15.93068741 10 19 C9.67 18.01 9.34 17.02 9 16 C8.34 16 7.68 16 7 16 C7 16.66 7 17.32 7 18 C6.34 18 5.68 18 5 18 C4.90203125 17.40832031 4.8040625 16.81664062 4.703125 16.20703125 C3.71391633 10.97957509 2.43574978 8.14659456 -1 4 C-0.75 1.6875 -0.75 1.6875 0 0 Z " fill="#D6C7B1" transform="translate(346,236)"/>
<path d="M0 0 C0.66 0.33 1.32 0.66 2 1 C0.91332031 1.96099609 0.91332031 1.96099609 -0.1953125 2.94140625 C-5.01243832 7.25112815 -9.68995256 11.50626792 -13.78515625 16.52734375 C-15.39775185 18.48216221 -17.17470958 20.24491306 -19 22 C-18.67 22.99 -18.34 23.98 -18 25 C-18.66 25 -19.32 25 -20 25 C-20 25.66 -20 26.32 -20 27 C-20.99 26.67 -21.98 26.34 -23 26 C-22.10711045 17.00616711 -12.31983544 9.99560463 -5.7890625 4.4375 C-3.89141854 2.91275551 -1.95661976 1.44807101 0 0 Z " fill="#E6C16E" transform="translate(194,137)"/>
<path d="M0 0 C2.875 -0.125 2.875 -0.125 6 0 C6.66 0.66 7.32 1.32 8 2 C15.23331409 3.89726271 22.60626434 4.9257942 30 6 C29.67 6.66 29.34 7.32 29 8 C19.30735084 7.75677166 10.97286238 7.08721485 2 3 C2 2.34 2 1.68 2 1 C1.34 0.67 0.68 0.34 0 0 Z " fill="#E06446" transform="translate(200,366)"/>
<path d="M0 0 C3.98972173 0.58019293 6.76872792 1.82210245 10.1875 3.9375 C11.04730469 4.46214844 11.90710938 4.98679687 12.79296875 5.52734375 C15 7 15 7 17 9 C17 9.66 17 10.32 17 11 C10.73127618 10.97157041 6.99494526 9.88433729 2.3125 5.66796875 C0.83675924 3.79254821 0.4046254 2.33165389 0 0 Z " fill="#E56239" transform="translate(180,355)"/>
<path d="M0 0 C0.66 0.33 1.32 0.66 2 1 C2.3227506 5.62609198 1.84450614 8.28026121 -1 12 C-1.66 12 -2.32 12 -3 12 C-3.10634766 13.07314453 -3.10634766 13.07314453 -3.21484375 14.16796875 C-4.22379969 17.80723769 -5.9790426 19.58349571 -8.5625 22.3125 C-9.38878906 23.19550781 -10.21507812 24.07851563 -11.06640625 24.98828125 C-12.02353516 25.98408203 -12.02353516 25.98408203 -13 27 C-13.66 26.67 -14.32 26.34 -15 26 C-14.38125 25.443125 -13.7625 24.88625 -13.125 24.3125 C-10.88008941 22.15004603 -10.88008941 22.15004603 -10 19.4375 C-8.81690361 16.55370255 -7.4530781 15.82002568 -5 14 C-4.20376178 11.90584196 -4.20376178 11.90584196 -4 10 C-3.34 10 -2.68 10 -2 10 C-1.34 6.7 -0.68 3.4 0 0 Z " fill="#726763" transform="translate(329,343)"/>
<path d="M0 0 C1.14926266 0.95421808 2.29430541 1.91352045 3.4375 2.875 C4.07558594 3.40867187 4.71367187 3.94234375 5.37109375 4.4921875 C7 6 7 6 8 8 C5.33333333 8 2.66666667 8 0 8 C-1.66805823 8.12894529 -3.33473722 8.27642547 -5 8.4375 C-5.86625 8.51871094 -6.7325 8.59992188 -7.625 8.68359375 C-10.14359219 8.94332068 -10.14359219 8.94332068 -13 10 C-13 9.01 -13 8.02 -13 7 C-8.71 5.68 -4.42 4.36 0 3 C0 2.01 0 1.02 0 0 Z " fill="#D84332" transform="translate(299,315)"/>
<path d="M0 0 C0.33 0.66 0.66 1.32 1 2 C-0.175625 3.3303125 -0.175625 3.3303125 -1.375 4.6875 C-3.59223456 7.33447946 -4.80194024 9.74812351 -6 13 C-8.13613158 16.5602193 -10.06850367 17.72492011 -14 19 C-14.66 17.68 -15.32 16.36 -16 15 C-14.02 14.67 -12.04 14.34 -10 14 C-9.773125 13.113125 -9.54625 12.22625 -9.3125 11.3125 C-7.81610154 7.5358753 -6.07508263 5.61382024 -3 3 C-2.34 3 -1.68 3 -1 3 C-0.67 2.01 -0.34 1.02 0 0 Z " fill="#721C20" transform="translate(334,292)"/>
<path d="M0 0 C0.99 0.33 1.98 0.66 3 1 C3 1.66 3 2.32 3 3 C2.360625 3.61875 1.72125 4.2375 1.0625 4.875 C-1.03417231 7.03520783 -1.58396674 8.08776721 -2 11 C-2.99 11 -3.98 11 -5 11 C-5.66 12.98 -6.32 14.96 -7 17 C-8.32 16.01 -9.64 15.02 -11 14 C-7.37 9.38 -3.74 4.76 0 0 Z " fill="#422226" transform="translate(338,279)"/>
<path d="M0 0 C0.33 0 0.66 0 1 0 C1 3.63 1 7.26 1 11 C0.01 11.495 0.01 11.495 -1 12 C-2.00338031 13.66463381 -3.00280135 15.33165572 -4 17 C-5.35951623 18.63505872 -6.75594118 20.24013212 -8.1875 21.8125 C-8.90292969 22.60269531 -9.61835938 23.39289063 -10.35546875 24.20703125 C-10.89816406 24.79871094 -11.44085938 25.39039063 -12 26 C-12 20.7504991 -9.98418276 17.05799647 -6.5 13.3125 C-5.675 12.549375 -4.85 11.78625 -4 11 C-0.81353872 7.58593434 -0.44245061 4.60148634 0 0 Z " fill="#A4211D" transform="translate(358,254)"/>
<path d="M0 0 C1.485 0.99 1.485 0.99 3 2 C4.2684375 2.5878125 4.2684375 2.5878125 5.5625 3.1875 C8.87900109 5.65361619 9.00298641 8.08316088 10 12 C10.99 12.66 11.98 13.32 13 14 C12.67 14.99 12.34 15.98 12 17 C11.34644531 16.32904297 11.34644531 16.32904297 10.6796875 15.64453125 C6.94650427 11.85478464 3.143987 8.33540417 -1 5 C-0.67 3.35 -0.34 1.7 0 0 Z " fill="#DF4E22" transform="translate(326,310)"/>
<path d="M0 0 C0.66 0.33 1.32 0.66 2 1 C-1.30897379 5.89152647 -5.62346549 9.55780902 -11 12 C-14.5625 11.375 -14.5625 11.375 -17 10 C-13.71536176 7.81024117 -10.34632186 5.79953451 -6.9375 3.8125 C-6.30005859 3.43158203 -5.66261719 3.05066406 -5.00585938 2.65820312 C-3.37200014 1.70956621 -1.68857298 0.8474251 0 0 Z " fill="#C9B8A3" transform="translate(238,290)"/>
<path d="M0 0 C1.32 0.33 2.64 0.66 4 1 C4.66 0.67 5.32 0.34 6 0 C4.50923566 3.2826932 2.61379679 5.93077441 0.375 8.75 C-0.57246094 9.94882813 -0.57246094 9.94882813 -1.5390625 11.171875 C-2.02117187 11.77515625 -2.50328125 12.3784375 -3 13 C-3 12.01 -3 11.02 -3 10 C-3.99 9.34 -4.98 8.68 -6 8 C-4.02 5.36 -2.04 2.72 0 0 Z " fill="#DDCBAE" transform="translate(191,208)"/>
<path d="M0 0 C9.57 0 19.14 0 29 0 C25.01238328 1.99380836 23.6637975 2.08116085 19.4375 1.875 C16.81685373 1.73650326 16.81685373 1.73650326 15 4 C15 3.01 15 2.02 15 1 C14.38511719 1.15597656 13.77023437 1.31195313 13.13671875 1.47265625 C12.32847656 1.66730469 11.52023437 1.86195313 10.6875 2.0625 C9.88699219 2.25972656 9.08648437 2.45695312 8.26171875 2.66015625 C6 3 6 3 3 2 C2.01 2.33 1.02 2.66 0 3 C0 2.01 0 1.02 0 0 Z " fill="#D84631" transform="translate(255,323)"/>
<path d="M0 0 C4.455 0.99 4.455 0.99 9 2 C9 2.99 9 3.98 9 5 C6.66705225 5.04241723 4.33297433 5.04092937 2 5 C1.67 4.67 1.34 4.34 1 4 C0.608125 4.515625 0.21625 5.03125 -0.1875 5.5625 C-0.785625 6.036875 -1.38375 6.51125 -2 7 C-4.6875 6.6875 -4.6875 6.6875 -7 6 C-7 5.01 -7 4.02 -7 3 C-5.35 3.33 -3.7 3.66 -2 4 C-1.34 2.68 -0.68 1.36 0 0 Z " fill="#CB2F2B" transform="translate(204,370)"/>
<path d="M0 0 C1.65 1.32 3.3 2.64 5 4 C4.34 4 3.68 4 3 4 C2.731875 4.763125 2.46375 5.52625 2.1875 6.3125 C1.0364442 8.91752101 0.19546244 10.24363005 -2 12 C-2.99 12.33 -3.98 12.66 -5 13 C-5.66 12.67 -6.32 12.34 -7 12 C-7 11.01 -7 10.02 -7 9 C-6.030625 8.38125 -5.06125 7.7625 -4.0625 7.125 C-0.79320392 5.31781611 -0.79320392 5.31781611 -0.125 2.25 C-0.08375 1.5075 -0.0425 0.765 0 0 Z " fill="#DD6851" transform="translate(316,331)"/>
<path d="M0 0 C2.81475723 2.36870281 3.51102282 4.15544267 4.125 7.75 C4.2796875 8.62914062 4.434375 9.50828125 4.59375 10.4140625 C5.09530903 13.60667862 5.58198911 16.79524988 6 20 C4.68 20.99 3.36 21.98 2 23 C1.93941406 21.75863281 1.87882812 20.51726562 1.81640625 19.23828125 C1.73196377 17.59634423 1.64731764 15.95441768 1.5625 14.3125 C1.52318359 13.49587891 1.48386719 12.67925781 1.44335938 11.83789062 C1.23101997 7.80344189 0.95552078 3.94252691 0 0 Z " fill="#E75218" transform="translate(358,248)"/>
<path d="M0 0 C0.66 0 1.32 0 2 0 C1.51171875 3.02734375 1.51171875 3.02734375 1.0234375 6.0546875 C1.01570312 6.69664062 1.00796875 7.33859375 1 8 C1.66 8.66 2.32 9.32 3 10 C0 11 0 11 -1.9375 10.328125 C-2.9584375 9.79445313 -2.9584375 9.79445313 -4 9.25 C-4.680625 8.90453125 -5.36125 8.5590625 -6.0625 8.203125 C-8.01440091 6.9910575 -9.4497163 5.68593353 -11 4 C-9.35 3.67 -7.7 3.34 -6 3 C-5.67 3.66 -5.34 4.32 -5 5 C-3.00016466 4.20882096 -3.00016466 4.20882096 -1 3 C-0.67 2.01 -0.34 1.02 0 0 Z " fill="#D74E33" transform="translate(193,365)"/>
<path d="M0 0 C0.66 0.33 1.32 0.66 2 1 C0.92333797 2.7541123 -0.16163339 4.50312587 -1.25 6.25 C-2.15492188 7.71179688 -2.15492188 7.71179688 -3.078125 9.203125 C-4.86343098 11.80125322 -6.74456152 13.81685122 -9 16 C-9.495 17.0209375 -9.495 17.0209375 -10 18.0625 C-11.23896532 20.46299531 -12.77730661 21.5182044 -15 23 C-14.67 21.35 -14.34 19.7 -14 18 C-13.01 18 -12.02 18 -11 18 C-10.87625 17.05125 -10.7525 16.1025 -10.625 15.125 C-10 12 -10 12 -8 10 C-7.01 10 -6.02 10 -5 10 C-4.731875 9.278125 -4.46375 8.55625 -4.1875 7.8125 C-3.01017502 5.02409874 -1.60854116 2.55904276 0 0 Z " fill="#661B23" transform="translate(347,272)"/>
<path d="M0 0 C-7.28628122 4.85752081 -17.51364556 4.3006976 -26 4 C-26 3.67 -26 3.34 -26 3 C-3.44846797 -1.72423398 -3.44846797 -1.72423398 0 0 Z " fill="#675A59" transform="translate(293,380)"/>
<path d="M0 0 C0 0.99 0 1.98 0 3 C-0.99 3.33 -1.98 3.66 -3 4 C-3.33 4.99 -3.66 5.98 -4 7 C-6.85016871 10.52079664 -8.32224602 11.85556063 -12.8125 12.8125 C-14.3903125 12.9053125 -14.3903125 12.9053125 -16 13 C-11.12610761 7.98275783 -6.14749047 3.43536232 0 0 Z " fill="#5C5353" transform="translate(317,362)"/>
<path d="M0 0 C1.32 0.66 2.64 1.32 4 2 C2.125 5.875 2.125 5.875 1 7 C-1.67058851 7.14115161 -4.32432238 7.04247107 -7 7 C-5.66667905 3.00003714 -3.5042173 2.16217663 0 0 Z " fill="#371A27" transform="translate(290,307)"/>
<path d="M0 0 C4 1 4 1 5.125 2.625 C5.41375 3.40875 5.7025 4.1925 6 5 C6.37125 5.969375 6.7425 6.93875 7.125 7.9375 C8.63066565 13.41047516 8.53391652 19.38602481 8 25 C7.34 25.66 6.68 26.32 6 27 C6.33 22.38 6.66 17.76 7 13 C6.34 13 5.68 13 5 13 C5 11.35 5 9.7 5 8 C4.34 8 3.68 8 3 8 C2.01 5.36 1.02 2.72 0 0 Z " fill="#CB4825" transform="translate(352,241)"/>
<path d="M0 0 C1.32 0 2.64 0 4 0 C4.33 1.32 4.66 2.64 5 4 C5.66 4 6.32 4 7 4 C8.66666667 6 10.33333333 8 12 10 C12.66 10 13.32 10 14 10 C13.67 11.32 13.34 12.64 13 14 C8.445213 10.19985226 4.04720741 6.34334454 0 2 C0 1.34 0 0.68 0 0 Z " fill="#EB9036" transform="translate(332,154)"/>
<path d="M0 0 C1.2989839 0.90626784 2.58893167 1.82549537 3.875 2.75 C4.59429687 3.26046875 5.31359375 3.7709375 6.0546875 4.296875 C8.08570565 6.07503547 8.97855012 7.52701607 10 10 C8.68 10.33 7.36 10.66 6 11 C5.01524786 9.90081184 4.03739527 8.7954398 3.0625 7.6875 C2.51722656 7.07261719 1.97195312 6.45773437 1.41015625 5.82421875 C0 4 0 4 -1 1 C-0.67 0.67 -0.34 0.34 0 0 Z " fill="#EBDCBD" transform="translate(156,272)"/>
<path d="M0 0 C1.52734375 1.2265625 1.52734375 1.2265625 3 3 C3.12504402 6.92785332 2.11660644 10.71840685 -0.48046875 13.69921875 C-2.125 15.0625 -2.125 15.0625 -5 17 C-5.66 16.67 -6.32 16.34 -7 16 C-6.401875 15.278125 -5.80375 14.55625 -5.1875 13.8125 C-1.45198291 9.00969231 0.43467816 6.23038695 0 0 Z M-8 17 C-7.67 17.99 -7.34 18.98 -7 20 C-7.66 20 -8.32 20 -9 20 C-8.67 19.01 -8.34 18.02 -8 17 Z " fill="#4A4647" transform="translate(325,339)"/>
<path d="M0 0 C0.33 0 0.66 0 1 0 C2.00570394 4.14852875 2.56680551 7.7489587 2 12 C-0.06801275 15.24160998 -2.44805768 18.12906489 -5 21 C-5 18 -5 18 -3.57421875 16.265625 C-1.4257563 13.17354505 -1.25965933 10.46486213 -0.8125 6.75 C-0.65394531 5.48671875 -0.49539063 4.2234375 -0.33203125 2.921875 C-0.22246094 1.95765625 -0.11289062 0.9934375 0 0 Z " fill="#61191E" transform="translate(356,249)"/>
<path d="M0 0 C5.60684769 4.3945563 9.68852459 8.06557377 12 15 C12.99 15.33 13.98 15.66 15 16 C14.67 17.32 14.34 18.64 14 20 C11.65885474 17.04777314 9.32844546 14.08725012 7 11.125 C6.33226562 10.28324219 5.66453125 9.44148437 4.9765625 8.57421875 C4.34492188 7.76855469 3.71328125 6.96289062 3.0625 6.1328125 C2.18271484 5.01737061 2.18271484 5.01737061 1.28515625 3.87939453 C0 2 0 2 0 0 Z " fill="#C1522A" transform="translate(337,221)"/>
<path d="M0 0 C0.66 0 1.32 0 2 0 C1.85892253 1.45880109 1.71197585 2.91703551 1.5625 4.375 C1.48128906 5.18710937 1.40007812 5.99921875 1.31640625 6.8359375 C1 9 1 9 0 11 C-0.66 11 -1.32 11 -2 11 C-2.04125 11.7425 -2.0825 12.485 -2.125 13.25 C-3.34857383 17.09551776 -5.59346582 18.04305483 -9 20 C-8.05029764 17.88143321 -7.25157967 16.24064143 -5.5625 14.625 C-1.54234197 10.44403565 -0.56128519 5.61285191 0 0 Z " fill="#615856" transform="translate(327,342)"/>
<path d="M0 0 C1.77111844 0.47811177 3.54188483 0.9575278 5.3125 1.4375 C6.29863281 1.70433594 7.28476563 1.97117187 8.30078125 2.24609375 C10.21517526 2.78079425 12.11433615 3.37144538 14 4 C14 4.66 14 5.32 14 6 C15.32 6.33 16.64 6.66 18 7 C12.0567256 8.57678709 12.0567256 8.57678709 9.08203125 6.953125 C7.88714285 6.04613082 6.71692247 5.10539847 5.578125 4.12890625 C3.91672691 2.70909532 3.91672691 2.70909532 1 3 C0.67 2.01 0.34 1.02 0 0 Z " fill="#CC5235" transform="translate(219,315)"/>
<path d="M0 0 C1.5625 1.1875 1.5625 1.1875 3 3 C2.77763607 7.1137327 1.0393461 10.47036252 -1 14 C-1.99 14.66 -2.98 15.32 -4 16 C-3.58315135 13.49890807 -3.19940269 11.37388004 -2 9.125 C-0.60765433 6.16626544 -0.37234039 3.22695003 0 0 Z " fill="#988E87" transform="translate(332,345)"/>
<path d="M0 0 C0 1.65 0 3.3 0 5 C-3.90028225 7.60018816 -7.47434569 7.15085514 -12 7 C-10.60148274 4.20296548 -8.86309036 4.13191945 -6 3 C-1.96153846 0 -1.96153846 0 0 0 Z " fill="#544348" transform="translate(297,371)"/>
<path d="M0 0 C0.66 0.66 1.32 1.32 2 2 C1.7578125 3.9453125 1.7578125 3.9453125 1.125 6.125 C0.92132813 6.84945313 0.71765625 7.57390625 0.5078125 8.3203125 C0.25644531 9.15175781 0.25644531 9.15175781 0 10 C-4.54805635 10.17835515 -7.8794254 9.99785435 -12 8 C-9.79765548 7.42902179 -7.6110702 6.92591813 -5.375 6.5 C-2.99712092 6.10412687 -2.99712092 6.10412687 -1 5 C-0.34444881 2.47266765 -0.34444881 2.47266765 0 0 Z " fill="#9F262A" transform="translate(198,301)"/>
<path d="M0 0 C0.66 0 1.32 0 2 0 C2.32152137 2.9740727 2.41566674 4.457826 0.5625 6.875 C-3.28367968 8.56356669 -6.99721337 8.16471508 -11 7 C-12.77734375 5.4453125 -12.77734375 5.4453125 -14 4 C-12.35 3.67 -10.7 3.34 -9 3 C-8.67 3.66 -8.34 4.32 -8 5 C-6.02 5 -4.04 5 -2 5 C-1.34 3.35 -0.68 1.7 0 0 Z " fill="#64222A" transform="translate(196,301)"/>
<path d="M0 0 C0.33 0 0.66 0 1 0 C1.68630056 6.45122526 -0.27083252 10.73396349 -4 16 C-4.66 16.33 -5.32 16.66 -6 17 C-5.56532095 12.39240202 -5.29526648 10.16345582 -2 7 C-1.25613932 4.69011685 -0.57809297 2.35684056 0 0 Z " fill="#877A74" transform="translate(331,345)"/>
<path d="M0 0 C1.65 1.65 3.3 3.3 5 5 C1.00999834 6.42500059 -2.80530429 7.40075776 -7 8 C-6.34 7.67 -5.68 7.34 -5 7 C-5 6.34 -5 5.68 -5 5 C-4.34 5 -3.68 5 -3 5 C-2.690625 4.360625 -2.38125 3.72125 -2.0625 3.0625 C-1 1 -1 1 0 0 Z " fill="#93202C" transform="translate(294,310)"/>
<path d="M0 0 C2.72574271 0.37330824 3.80822085 0.79194601 5.703125 2.84765625 C6.21359375 3.57855469 6.7240625 4.30945313 7.25 5.0625 C8.03117187 6.16271484 8.03117187 6.16271484 8.828125 7.28515625 C9.21484375 7.85105469 9.6015625 8.41695312 10 9 C3.53658537 7.53658537 3.53658537 7.53658537 1.0625 5.0625 C0 3 0 3 0 0 Z " fill="#E7D9BE" transform="translate(312,194)"/>
<path d="M0 0 C4.62 0 9.24 0 14 0 C7.83204838 4.11196775 0.23434167 4.26793858 -7 4 C-7 3.67 -7 3.34 -7 3 C-5.02 3 -3.04 3 -1 3 C-0.67 2.01 -0.34 1.02 0 0 Z " fill="#D67360" transform="translate(257,372)"/>
<path d="M0 0 C2 1 2 1 2.9375 2.75 C3 5 3 5 0.5625 7.75 C-0.7059375 8.86375 -0.7059375 8.86375 -2 10 C-2 9.34 -2 8.68 -2 8 C-3.32 8.33 -4.64 8.66 -6 9 C-4.02 6.03 -2.04 3.06 0 0 Z " fill="#DCCAB0" transform="translate(340,269)"/>
<path d="M0 0 C0.33 0.66 0.66 1.32 1 2 C3.52733235 2.65555119 3.52733235 2.65555119 6 3 C6 3.33 6 3.66 6 4 C-4.89 4.495 -4.89 4.495 -16 5 C-12.45429137 3.22714569 -9.56675327 2.28770187 -5.75 1.375 C-4.13351562 0.98441406 -4.13351562 0.98441406 -2.484375 0.5859375 C-1.66453125 0.39257812 -0.8446875 0.19921875 0 0 Z " fill="#53232C" transform="translate(271,317)"/>
<path d="M0 0 C0 3.59857954 -0.95830515 5.09451118 -3 8 C-3.66 8 -4.32 8 -5 8 C-5 9.65 -5 11.3 -5 13 C-5.99 13 -6.98 13 -8 13 C-8.66 12.01 -9.32 11.02 -10 10 C-9.071875 9.87625 -9.071875 9.87625 -8.125 9.75 C-5.8695627 9.21428985 -5.8695627 9.21428985 -5 7.25 C-4.505 6.13625 -4.505 6.13625 -4 5 C-2.6949419 3.31110128 -1.36639342 1.6396721 0 0 Z " fill="#B6281F" transform="translate(331,300)"/>
<path d="M0 0 C3.58326501 -0.05814085 7.16640838 -0.09364357 10.75 -0.125 C11.76578125 -0.14175781 12.7815625 -0.15851563 13.828125 -0.17578125 C14.8078125 -0.18222656 15.7875 -0.18867188 16.796875 -0.1953125 C17.69760742 -0.20578613 18.59833984 -0.21625977 19.52636719 -0.22705078 C22.13926856 0.01278324 23.75664666 0.67687936 26 2 C22.98968256 2.93423645 22.13349732 3.04449911 19 2 C18.01 2.495 18.01 2.495 17 3 C16.34 2.67 15.68 2.34 15 2 C12.45384991 1.76827173 9.92603775 1.58105471 7.375 1.4375 C6.66859375 1.39431641 5.9621875 1.35113281 5.234375 1.30664062 C3.48981463 1.20055249 1.74493303 1.09977111 0 1 C0 0.67 0 0.34 0 0 Z " fill="#9E8080" transform="translate(236,386)"/>
<path d="M0 0 C0.66 0.33 1.32 0.66 2 1 C-0.2034806 2.1560727 -2.41203156 3.29984721 -4.625 4.4375 C-5.24246094 4.76298828 -5.85992187 5.08847656 -6.49609375 5.42382812 C-10.33285611 7.38259628 -13.71743908 8.53221258 -18 9 C-17.34 8.67 -16.68 8.34 -16 8 C-16 7.34 -16 6.68 -16 6 C-15.34773438 5.81824219 -14.69546875 5.63648438 -14.0234375 5.44921875 C-9.97899685 4.28599467 -6.27651098 3.13825549 -2.5 1.25 C-1.675 0.8375 -0.85 0.425 0 0 Z " fill="#D37E6A" transform="translate(289,363)"/>
<path d="M0 0 C0.33 0.66 0.66 1.32 1 2 C-0.14453125 4.78515625 -0.14453125 4.78515625 -1.8125 8.0625 C-2.35519531 9.14660156 -2.89789063 10.23070312 -3.45703125 11.34765625 C-5 14 -5 14 -7 15 C-7.33 13.68 -7.66 12.36 -8 11 C-7.01 10.34 -6.02 9.68 -5 9 C-3.82065192 7.08623041 -3.82065192 7.08623041 -2.875 4.9375 C-1.07118644 1.07118644 -1.07118644 1.07118644 0 0 Z " fill="#CA301E" transform="translate(334,297)"/>
<path d="M0 0 C3.80081207 0.4587187 7.54995338 0.91508554 11.3125 1.625 C14.09294139 2.21585164 14.09294139 2.21585164 17 1 C17 1.66 17 2.32 17 3 C17.99 3.33 18.98 3.66 20 4 C15.36733774 5.43027825 11.6905884 4.39403523 7.1875 3.0625 C6.49462891 2.86720703 5.80175781 2.67191406 5.08789062 2.47070312 C3.38910039 1.99035554 1.69413405 1.49651979 0 1 C0 0.67 0 0.34 0 0 Z " fill="#9F2534" transform="translate(206,380)"/>
<path d="M0 0 C0.66 0.33 1.32 0.66 2 1 C-0.475 5.455 -0.475 5.455 -3 10 C-3.99 8.68 -4.98 7.36 -6 6 C-2.25 1.125 -2.25 1.125 0 0 Z " fill="#401C22" transform="translate(345,272)"/>
<path d="M0 0 C0.66 0 1.32 0 2 0 C2 1.32 2 2.64 2 4 C1.01 4 0.02 4 -1 4 C-1.66 5.98 -2.32 7.96 -3 10 C-3.66 10 -4.32 10 -5 10 C-5.33 11.32 -5.66 12.64 -6 14 C-6.66 13.67 -7.32 13.34 -8 13 C-6.5360077 9.93124691 -4.85990364 7.09565257 -3 4.25 C-2.484375 3.45078125 -1.96875 2.6515625 -1.4375 1.828125 C-0.963125 1.22484375 -0.48875 0.6215625 0 0 Z " fill="#801A24" transform="translate(319,335)"/>
<path d="M0 0 C0 0.99 0 1.98 0 3 C-0.99 3.66 -1.98 4.32 -3 5 C-3.99 6.485 -3.99 6.485 -5 8 C-8.125 8.6875 -8.125 8.6875 -11 9 C-11.33 8.34 -11.66 7.68 -12 7 C-8.04 4.69 -4.08 2.38 0 0 Z " fill="#CEBBA2" transform="translate(284,263)"/>
<path d="M0 0 C-1.26941497 3.91402949 -2.51167694 5.79072873 -6 8 C-6.33 6.35 -6.66 4.7 -7 3 C-3.375 0 -3.375 0 0 0 Z " fill="#E5D6C1" transform="translate(348,265)"/>
<path d="M0 0 C0.33 0.66 0.66 1.32 1 2 C0.39671875 2.39832031 -0.2065625 2.79664063 -0.828125 3.20703125 C-1.62734375 3.73683594 -2.4265625 4.26664063 -3.25 4.8125 C-4.03890625 5.33457031 -4.8278125 5.85664063 -5.640625 6.39453125 C-8.01363202 7.95279356 -8.01363202 7.95279356 -10.109375 9.76171875 C-10.73328125 10.17035156 -11.3571875 10.57898438 -12 11 C-12.99 10.67 -13.98 10.34 -15 10 C-13.43902526 8.8936781 -11.87614673 7.79004215 -10.3125 6.6875 C-9.44238281 6.07261719 -8.57226562 5.45773438 -7.67578125 4.82421875 C-5.16749048 3.11418694 -2.61897801 1.53363577 0 0 Z " fill="#F0DAAA" transform="translate(218,181)"/>
<path d="M0 0 C1.17949219 0.19464844 2.35898438 0.38929688 3.57421875 0.58984375 C4.92966797 0.82380859 4.92966797 0.82380859 6.3125 1.0625 C5.9825 1.7225 5.6525 2.3825 5.3125 3.0625 C3.37433265 2.9483134 1.43694901 2.82076577 -0.5 2.6875 C-1.57894531 2.61789062 -2.65789062 2.54828125 -3.76953125 2.4765625 C-6.6875 2.0625 -6.6875 2.0625 -9.6875 0.0625 C-6.00942463 -1.16352512 -3.80506073 -0.64045577 0 0 Z " fill="#E2512F" transform="translate(223.6875,370.9375)"/>
<path d="M0 0 C0 3.5934292 -0.58617491 4.41970421 -3 7 C-5.6875 8.25 -5.6875 8.25 -8 9 C-8.66 7.68 -9.32 6.36 -10 5 C-9.16855469 4.70996094 -9.16855469 4.70996094 -8.3203125 4.4140625 C-7.59585937 4.15367187 -6.87140625 3.89328125 -6.125 3.625 C-5.04605469 3.24214844 -5.04605469 3.24214844 -3.9453125 2.8515625 C-1.81842006 2.06122217 -1.81842006 2.06122217 0 0 Z " fill="#8C2524" transform="translate(328,302)"/>
<path d="M0 0 C4.95 0.99 4.95 0.99 10 2 C8.35 3.32 6.7 4.64 5 6 C2.5 4.6875 2.5 4.6875 0 3 C0 2.01 0 1.02 0 0 Z " fill="#D9C8AE" transform="translate(304,298)"/>
<path d="M0 0 C1.32 0.33 2.64 0.66 4 1 C3.814375 1.763125 3.62875 2.52625 3.4375 3.3125 C2.77180827 6.08967375 2.77180827 6.08967375 4 9 C3.34 9.66 2.68 10.32 2 11 C-0.32590854 7.36576791 -0.16265833 4.22911669 0 0 Z " fill="#E79737" transform="translate(125,294)"/>
<path d="M0 0 C0.66 0.33 1.32 0.66 2 1 C2.32613618 5.67461851 1.70582788 8.16674383 -1 12 C-2.45606519 7.47907032 -1.27032841 4.48351204 0 0 Z " fill="#796C68" transform="translate(329,343)"/>
<path d="M0 0 C-1.89385437 0.50744423 -3.79018666 1.00564574 -5.6875 1.5 C-6.74324219 1.7784375 -7.79898437 2.056875 -8.88671875 2.34375 C-11.71142672 2.9391715 -14.12836708 3.12786492 -17 3 C-16.01 2.67 -15.02 2.34 -14 2 C-14 1.34 -14 0.68 -14 0 C-12.41773035 -0.19627391 -10.83410729 -0.38165538 -9.25 -0.5625 C-7.92742187 -0.71912109 -7.92742187 -0.71912109 -6.578125 -0.87890625 C-4.11567549 -0.99456676 -2.33461936 -0.73638695 0 0 Z " fill="#D1362D" transform="translate(297,320)"/>
<path d="M0 0 C3 2 3 2 6 4 C5.34 5.65 4.68 7.3 4 9 C2.35 7.68 0.7 6.36 -1 5 C-0.67 3.35 -0.34 1.7 0 0 Z " fill="#D64827" transform="translate(326,310)"/>
<path d="M0 0 C1.32 0 2.64 0 4 0 C3.45773019 3.79588866 1.79872437 5.47211993 -1 8 C-1.625 5.125 -1.625 5.125 -2 2 C-1.34 1.34 -0.68 0.68 0 0 Z " fill="#DFCDB1" transform="translate(329,284)"/>
<path d="M0 0 C0 0.99 0 1.98 0 3 C-2.81534937 5.65894107 -5.12793601 7.42636089 -9 8 C-7.50164772 3.33845958 -4.11536409 2.13389249 0 0 Z " fill="#CEBAA3" transform="translate(267,273)"/>
<path d="M0 0 C0.66 0.33 1.32 0.66 2 1 C-0.16264012 4.98381075 -2.71211176 7.88983545 -6 11 C-6.66 10.67 -7.32 10.34 -8 10 C-5.36 6.7 -2.72 3.4 0 0 Z " fill="#1C2A31" transform="translate(159,228)"/>
<path d="M0 0 C1 4 1 4 1 7 C-1.90600261 8.25664978 -3.79604584 9 -7 9 C-4.69 6.03 -2.38 3.06 0 0 Z " fill="#E5D2A7" transform="translate(159,221)"/>
<path d="M0 0 C5.68357313 2.24699403 7.79843579 5.00932638 11 10 C8.33333333 8.66666667 5.66666667 7.33333333 3 6 C3 5.34 3 4.68 3 4 C2.01 3.67 1.02 3.34 0 3 C0 2.01 0 1.02 0 0 Z " fill="#E5A52C" transform="translate(139,156)"/>
<path d="M0 0 C1.9375 0.6875 1.9375 0.6875 2.9375 2.6875 C1.9475 4.0075 0.9575 5.3275 -0.0625 6.6875 C-1.3825 4.7075 -2.7025 2.7275 -4.0625 0.6875 C-2.0625 -0.3125 -2.0625 -0.3125 0 0 Z " fill="#E2D1AC" transform="translate(166.0625,282.3125)"/>
<path d="M0 0 C0.66 0.66 1.32 1.32 2 2 C1.625 4.625 1.625 4.625 1 7 C-0.98 7 -2.96 7 -5 7 C-3.35 4.69 -1.7 2.38 0 0 Z " fill="#D9CBB4" transform="translate(348,259)"/>
<path d="M0 0 C0.33 1.32 0.66 2.64 1 4 C1.99 3.34 2.98 2.68 4 2 C2.55746343 5.36591866 0.66735273 7.51047079 -2 10 C-2.6875 7.25 -2.6875 7.25 -3 4 C-1.5625 1.625 -1.5625 1.625 0 0 Z " fill="#D8C7AB" transform="translate(169,237)"/>
<path d="M0 0 C0.66 0 1.32 0 2 0 C0.59023295 3.03852705 -1.08870228 5.5939595 -3.125 8.25 C-3.66382813 8.95640625 -4.20265625 9.6628125 -4.7578125 10.390625 C-5.16773438 10.92171875 -5.57765625 11.4528125 -6 12 C-6.33 11.01 -6.66 10.02 -7 9 C-5.63671875 6.73828125 -5.63671875 6.73828125 -3.6875 4.3125 C-3.05199219 3.50425781 -2.41648438 2.69601563 -1.76171875 1.86328125 C-1.18035156 1.24839844 -0.59898437 0.63351563 0 0 Z " fill="#E6A22F" transform="translate(164,212)"/>
<path d="M0 0 C1.6875 2.5 1.6875 2.5 3 5 C1.35 5.33 -0.3 5.66 -2 6 C-2.99 4.35 -3.98 2.7 -5 1 C-3 0 -3 0 0 0 Z " fill="#DECDB3" transform="translate(326,207)"/>
<path d="M0 0 C0.99 0 1.98 0 3 0 C3.12375 1.0725 3.2475 2.145 3.375 3.25 C3.89643936 6.37863615 4.40088254 8.33480424 6 11 C4.1875 10.5 4.1875 10.5 2 9 C0.73847391 6.4136076 -0.15643045 3.74799171 -1 1 C-0.67 0.67 -0.34 0.34 0 0 Z " fill="#E06231" transform="translate(349,169)"/>
<path d="M0 0 C-1 3 -1 3 -3.875 4.75 C-7 6 -7 6 -10 5 C-3.40909091 0 -3.40909091 0 0 0 Z " fill="#968C85" transform="translate(294,384)"/>
<path d="M0 0 C1.9375 0.375 1.9375 0.375 4 1 C4.33 1.66 4.66 2.32 5 3 C4.34 3 3.68 3 3 3 C3 3.66 3 4.32 3 5 C2.34 5 1.68 5 1 5 C0.67 5.99 0.34 6.98 0 8 C-1.43088528 5.13822943 -0.59991697 3.06624227 0 0 Z " fill="#C7402E" transform="translate(199,303)"/>
<path d="M0 0 C0 3.30252488 -0.53079777 5.06159553 -2 8 C-4.125 9.8125 -4.125 9.8125 -6 11 C-3.76687117 3.98159509 -3.76687117 3.98159509 -2 1 C-1.34 0.67 -0.68 0.34 0 0 Z " fill="#881D20" transform="translate(351,269)"/>
<path d="M0 0 C0.33 0.99 0.66 1.98 1 3 C-1.64 4.98 -4.28 6.96 -7 9 C-7.33 8.01 -7.66 7.02 -8 6 C-6.20963542 5.0234375 -4.41927083 4.046875 -2.62890625 3.0703125 C-0.83381685 2.08589976 -0.83381685 2.08589976 0 0 Z " fill="#D4C2A9" transform="translate(309,247)"/>
<path d="M0 0 C-0.33 0.99 -0.66 1.98 -1 3 C-3.31 3 -5.62 3 -8 3 C-7.67 2.01 -7.34 1.02 -7 0 C-4.05610218 -1.17755913 -3.10046087 -1.03348696 0 0 Z " fill="#EBD7BB" transform="translate(317,301)"/>
<path d="M0 0 C0.99 0.33 1.98 0.66 3 1 C3 1.66 3 2.32 3 3 C1.37373596 4.38232443 -0.2925002 5.71937515 -2 7 C-2.66 6.34 -3.32 5.68 -4 5 C-2.68 3.35 -1.36 1.7 0 0 Z " fill="#47282F" transform="translate(338,279)"/>
<path d="M0 0 C0.66 0 1.32 0 2 0 C1.34 2.97 0.68 5.94 0 9 C-0.99 8.34 -1.98 7.68 -3 7 C-2.38722388 4.03824877 -1.74627478 2.61941217 0 0 Z " fill="#E7DBC1" transform="translate(144,243)"/>
<path d="M0 0 C1.32 0.66 2.64 1.32 4 2 C4 2.66 4 3.32 4 4 C3.34 4 2.68 4 2 4 C1.34 5.32 0.68 6.64 0 8 C0 7.01 0 6.02 0 5 C-0.66 4.67 -1.32 4.34 -2 4 C-1.34 2.68 -0.68 1.36 0 0 Z " fill="#DAC9AA" transform="translate(180,223)"/>
<path d="M0 0 C0.33 0 0.66 0 1 0 C1.33 1.98 1.66 3.96 2 6 C1.01 6.495 1.01 6.495 0 7 C0 6.34 0 5.68 0 5 C-0.66 5 -1.32 5 -2 5 C-2.66 6.32 -3.32 7.64 -4 9 C-4.66 8.67 -5.32 8.34 -6 8 C-5.02471263 6.66382648 -4.04466681 5.3311249 -3.0625 4 C-2.24458984 2.88625 -2.24458984 2.88625 -1.41015625 1.75 C-0.94480469 1.1725 -0.47945312 0.595 0 0 Z " fill="#E9D6A1" transform="translate(178,196)"/>
<path d="M0 0 C2.9375 0.75 2.9375 0.75 6 2 C6.875 4.125 6.875 4.125 7 6 C7.66 6 8.32 6 9 6 C8.67 6.66 8.34 7.32 8 8 C6.66372225 6.85760183 5.33104612 5.71098945 4 4.5625 C3.2575 3.92441406 2.515 3.28632813 1.75 2.62890625 C1.1725 2.09136719 0.595 1.55382812 0 1 C0 0.67 0 0.34 0 0 Z " fill="#DF6432" transform="translate(344,331)"/>
<path d="M0 0 C3.41021743 0.78697325 6.68885166 1.87119943 10 3 C9.67 3.66 9.34 4.32 9 5 C4.68607774 4.5206753 2.83430453 3.2542015 0 0 Z " fill="#E1542F" transform="translate(188,310)"/>
<path d="M0 0 C-1.1875 1.5 -1.1875 1.5 -3 3 C-5.6875 3.1875 -5.6875 3.1875 -8 3 C-8 2.34 -8 1.68 -8 1 C-4.93251126 -0.86240388 -3.40254489 -1.2151946 0 0 Z " fill="#301D28" transform="translate(195,303)"/>
<path d="M0 0 C0.66 0.33 1.32 0.66 2 1 C-1.625 5.875 -1.625 5.875 -5 7 C-3.75023244 3.34683329 -3.32901247 2.21934164 0 0 Z M-7 7 C-5 8 -5 8 -5 8 Z " fill="#D2C1AA" transform="translate(238,290)"/>
<path d="M0 0 C3.99500618 1.3697164 6.80009492 3.25722422 10 6 C9.01 6.33 8.02 6.66 7 7 C5.17578125 5.8203125 5.17578125 5.8203125 3.3125 4.125 C2.68988281 3.57070313 2.06726563 3.01640625 1.42578125 2.4453125 C0 1 0 1 0 0 Z " fill="#E15229" transform="translate(181,358)"/>
<path d="M0 0 C0.33 0.66 0.66 1.32 1 2 C1.66 2 2.32 2 3 2 C3 2.66 3 3.32 3 4 C2.01 4.33 1.02 4.66 0 5 C-2.6875 3.625 -2.6875 3.625 -5 2 C-5 1.67 -5 1.34 -5 1 C-3.35 0.67 -1.7 0.34 0 0 Z " fill="#D2C4AB" transform="translate(188,299)"/>
<path d="M0 0 C0.66 0 1.32 0 2 0 C2 1.65 2 3.3 2 5 C1.01 4.67 0.02 4.34 -1 4 C-1.33 4.99 -1.66 5.98 -2 7 C-2.66 6.67 -3.32 6.34 -4 6 C-3.34 4.68 -2.68 3.36 -2 2 C-1.34 2 -0.68 2 0 2 C0 1.34 0 0.68 0 0 Z " fill="#E8DAC0" transform="translate(353,252)"/>
<path d="M0 0 C0.33 0.99 0.66 1.98 1 3 C1.66 3 2.32 3 3 3 C2.67 3.99 2.34 4.98 2 6 C1.01 6.33 0.02 6.66 -1 7 C-1.625 5.1875 -1.625 5.1875 -2 3 C-1.34 2.01 -0.68 1.02 0 0 Z " fill="#E2D0B3" transform="translate(183,219)"/>
<path d="M0 0 C4.875 4.75 4.875 4.75 6 7 C1.25 5.125 1.25 5.125 -1 4 C-0.67 2.68 -0.34 1.36 0 0 Z " fill="#D9CFB8" transform="translate(156,269)"/>
<path d="M0 0 C0.86625 0.3403125 0.86625 0.3403125 1.75 0.6875 C0.1 2.0075 -1.55 3.3275 -3.25 4.6875 C-4.24 4.0275 -5.23 3.3675 -6.25 2.6875 C-2.80384615 -0.38942308 -2.80384615 -0.38942308 0 0 Z " fill="#EF9C16" transform="translate(219.25,136.3125)"/>
<path d="M0 0 C-0.33 1.32 -0.66 2.64 -1 4 C-2.98 4.33 -4.96 4.66 -7 5 C-2.25 0 -2.25 0 0 0 Z " fill="#52323C" transform="translate(297,371)"/>
<path d="M0 0 C-0.33 1.32 -0.66 2.64 -1 4 C-1.99 4 -2.98 4 -4 4 C-4.33 3.01 -4.66 2.02 -5 1 C-3 0 -3 0 0 0 Z " fill="#E34F35" transform="translate(314,339)"/>
<path d="M0 0 C0.66 0 1.32 0 2 0 C1.67 0.99 1.34 1.98 1 3 C-5.0546875 3.1953125 -5.0546875 3.1953125 -7 3 C-7.66 2.34 -8.32 1.68 -9 1 C-7.700625 1.020625 -6.40125 1.04125 -5.0625 1.0625 C-3.70834367 1.08399454 -2.35243917 1.07148199 -1 1 C-0.67 0.67 -0.34 0.34 0 0 Z " fill="#89262C" transform="translate(195,307)"/>
<path d="M0 0 C1.32 0.66 2.64 1.32 4 2 C3.01 3.485 3.01 3.485 2 5 C1.01 4.67 0.02 4.34 -1 4 C-0.67 2.68 -0.34 1.36 0 0 Z " fill="#DBCDB5" transform="translate(346,236)"/>
<path d="M0 0 C1.61949011 2.57213134 2.04408751 3.67669159 1.625 6.75 C1.41875 7.4925 1.2125 8.235 1 9 C0.01 8.67 -0.98 8.34 -2 8 C-2 6.02 -2 4.04 -2 2 C-1.34 2 -0.68 2 0 2 C0 1.34 0 0.68 0 0 Z " fill="#DBCDB2" transform="translate(196,196)"/>
<path d="M0 0 C2.475 0.495 2.475 0.495 5 1 C5.33 2.98 5.66 4.96 6 7 C1.125 2.25 1.125 2.25 0 0 Z " fill="#D77B2C" transform="translate(316,195)"/>
</svg>
